/* XPM */
static char *_a46d98c65eb4b87a54f093a1bea5c76VQJ6G6xP8XNi3oGV[] = {
/* columns rows colors chars-per-pixel */
"64 64 256 2 ",
"   c #010101",
".  c #0B0001",
"X  c #02000B",
"o  c #0A0807",
"O  c #1C0000",
"+  c #150305",
"@  c #040312",
"#  c #1B1B1B",
"$  c #171800",
"%  c #230000",
"&  c #2C0304",
"*  c #3C0202",
"=  c #370607",
"-  c #341813",
";  c #323014",
":  c #252426",
">  c #383638",
",  c #302839",
"<  c #1A1E17",
"1  c #440404",
"2  c #4A0707",
"3  c #540203",
"4  c #5D0203",
"5  c #53090A",
"6  c #570508",
"7  c #51130D",
"8  c #640102",
"9  c #6B0100",
"0  c #680806",
"q  c #730101",
"w  c #7B0102",
"e  c #7D020A",
"r  c #770903",
"t  c #671702",
"y  c #771601",
"u  c #6B0E14",
"i  c #4E2600",
"p  c #702A03",
"a  c #4F1D26",
"s  c #503031",
"d  c #672A31",
"f  c #711321",
"g  c #504C3B",
"h  c #5A653D",
"j  c #66743C",
"k  c #7F3544",
"l  c #575656",
"z  c #4C4C48",
"x  c #715051",
"c  c #646758",
"v  c #6C7757",
"b  c #717A5A",
"n  c #6D7648",
"m  c #666768",
"M  c #787867",
"N  c #686774",
"B  c #757474",
"V  c #7D7B7C",
"C  c #787678",
"Z  c #726D6F",
"A  c #5C6351",
"S  c #35314C",
"D  c #830002",
"F  c #8B0101",
"G  c #870706",
"H  c #930201",
"J  c #9B0201",
"K  c #970806",
"L  c #8A1701",
"P  c #981500",
"I  c #870712",
"U  c #940712",
"Y  c #8A1316",
"T  c #A40201",
"R  c #A90605",
"E  c #B40103",
"W  c #B70606",
"Q  c #A81603",
"!  c #B20C0F",
"~  c #8E3104",
"^  c #AE3110",
"/  c #971A20",
"(  c #B22D32",
")  c #9F292C",
"_  c #CF0E14",
"`  c #EC2D3A",
"'  c #CE2E34",
"]  c #8E4E0B",
"[  c #A85210",
"{  c #AC6B17",
"}  c #AE7528",
"|  c #986022",
" . c #CA6C32",
".. c #A73A45",
"X. c #F43847",
"o. c #924F55",
"O. c #B25962",
"+. c #837D79",
"@. c #836764",
"#. c #B56A6D",
"$. c #CF5053",
"%. c #FD4D58",
"&. c #F54D55",
"*. c #FF5766",
"=. c #E05D62",
"-. c #DB686A",
";. c #C07073",
":. c #E6686B",
">. c #FB6466",
",. c #FC6A74",
"<. c #F87779",
"1. c #E97075",
"2. c #CE6756",
"3. c #7CB902",
"4. c #7AAA06",
"5. c #78893B",
"6. c #7EC500",
"7. c #798752",
"8. c #7E827A",
"9. c #7A8364",
"0. c #86AA06",
"q. c #84B500",
"w. c #86BA00",
"e. c #8BBD01",
"r. c #8DBD0B",
"t. c #89B507",
"y. c #93BD02",
"u. c #99BC03",
"i. c #93BD0C",
"p. c #98B70B",
"a. c #88AC18",
"s. c #9BA914",
"d. c #8EB616",
"f. c #93BB14",
"g. c #97B819",
"h. c #9AAC05",
"j. c #A5B817",
"k. c #A6AD14",
"l. c #B4952E",
"z. c #97B926",
"x. c #98B736",
"c. c #92AD2A",
"v. c #A9A826",
"b. c #A9B727",
"n. c #B5B92B",
"m. c #BBAA35",
"M. c #B1B331",
"N. c #9B9710",
"B. c #C99037",
"V. c #C7B639",
"C. c #C4AA33",
"Z. c #85C400",
"A. c #8DC301",
"S. c #85CB01",
"D. c #8CCA01",
"F. c #8DC40A",
"G. c #89C60C",
"H. c #93C402",
"J. c #9AC403",
"K. c #94CA02",
"L. c #9ACA03",
"P. c #93C40B",
"I. c #9AC40B",
"U. c #95CA0A",
"Y. c #9ACB0B",
"T. c #99D206",
"R. c #8CC512",
"E. c #9AC414",
"W. c #9BCC14",
"Q. c #97C517",
"!. c #8BD100",
"~. c #A3C808",
"^. c #A3C916",
"/. c #A3D70B",
"(. c #9BC324",
"). c #9EC830",
"_. c #A6C929",
"`. c #AAC832",
"'. c #899B55",
"]. c #9BB746",
"[. c #98AF52",
"{. c #A4BB57",
"}. c #A8B851",
"|. c #81836D",
" X c #8C9A65",
".X c #82827C",
"XX c #828677",
"oX c #8C947A",
"OX c #929D79",
"+X c #99A96E",
"@X c #A5B967",
"#X c #A8B879",
"$X c #BDB469",
"%X c #B38950",
"&X c #D8A748",
"*X c #CFB44C",
"=X c #FC857C",
"-X c #CFB86B",
";X c #ECB367",
":X c #DDA051",
">X c #A9C745",
",X c #A9C554",
"<X c #B4CF5A",
"1X c #B2C970",
"2X c #D2C44F",
"3X c #C3D676",
"4X c #F2C76F",
"5X c #D5D663",
"6X c #7D7A84",
"7X c #7A7786",
"8X c #7D7D95",
"9X c #6F6A83",
"0X c #817D83",
"qX c #857F97",
"wX c #867FA0",
"eX c #F87B83",
"rX c #DC7D85",
"tX c #7C8486",
"yX c #848584",
"uX c #84838B",
"iX c #8C8C8C",
"pX c #868A86",
"aX c #8A928A",
"sX c #949888",
"dX c #8C8D92",
"fX c #868596",
"gX c #8C9393",
"hX c #939393",
"jX c #95959A",
"kX c #9A9B9B",
"lX c #989A96",
"zX c #988B8A",
"xX c #A29890",
"cX c #9BA38A",
"vX c #9DA395",
"bX c #8CA39D",
"nX c #A3A49A",
"mX c #A6B28B",
"MX c #9A99A6",
"NX c #8D8CA4",
"BX c #98A7A3",
"VX c #A4A3A3",
"CX c #A7A8AA",
"ZX c #AAA9B6",
"AX c #B1B5AE",
"SX c #A09DA6",
"DX c #FD8486",
"FX c #FF8F93",
"GX c #B9CA90",
"HX c #B7C2A6",
"JX c #CEE48D",
"KX c #C5D998",
"LX c #B3B1C4",
"PX c #C0BECC",
"IX c #BFC4CA",
"UX c #C3C1D6",
/* pixels */
"e.A.J.H.H.H.H.J.A.D.U.U.Y.~.~.~.L.H.L.L.y.y.~.~.u.y.u.y.y.H.K.T.!.D.Z.D.Y.Y.H.e.L.J.L.L.L.K.D.H.H.J.J.Y.Y.J.H.y.u.u.u.u.H.H.H.D.",
"A.H.J.J.H.H.H.H.A.D.D.K.Y.J.J.J.~.H.H.Y.J.J.y.q.y.J.I.~.~.J.H.H.H.A.A.e.w.e.A.I.J.e.e.H.L.Y.Y.L.J.J.Y.Y.U.U.Y.Y.y.u.u.u.H.H.H.D.",
"A.P.U.I.J.H.H.A.A.A.D.D.K.H.J.J.u.u.J.H.q.w.W._.r.r.f.f.p.p.p.j.p.u.^.^.I.P.r.G.R.Q.W.W.i.p.y.u.L.L.K.U.U.U.Y.Y.y.y.u.y.H.H.A.A.",
"A.A.U.Y.J.J.H.H.A.A.D.D.A.A.H.H.~.H.H.P.U.Q.R.4.(.z.b.v.v.v.m.V.V.C.v.k.b.b._.(.d.f.r.r.q.i.I.^.J.H.H.D.D.D.U.K.A.y.y.y.H.H.H.A.",
"A.A.P.J.J.J.J.H.A.A.Z.Z.Z.A.A.A.D.S.G.G.t.Q.`.M.v.*X4X4X;X:X . . . .:X;X4X4X*Xv.v.b.p.^.Y./.A.3.A.A.A.D.D.D.S.D.A.A.H.H.H.H.H.A.",
"G.A.A.H.J.J.J.H.A.A.Z.Z.Z.Z.A.Z.3.3.R.f.g.`.2X*X} [ ~ L G K Q Q R R P K L ~ [ { &X2XV._.0.u.H.T.e.A.D.D.D.!.S.S.A.A.A.H.H.H.H.P.",
"G.G.A.H.J.J.J.H.A.A.Z.Z.Z.Z.A.r.(.g.z.M.V.B.{ L P P R R W ! R R E E E E E R R Q G [ B.;Xm.V.g.g.p.y.A.D.S.S.S.S.S.D.H.H.H.H.U.U.",
"R.G.A.y.y.H.J.H.H.A.A.Z.r.r.i.g.v.*X2Xl.~ r P Q W E _ _ ` X.%.%.%.%.%.%.%.` _ _ E Q G [ [ &X*Xm.k.p.i.e.Z.Z.6.6.S.D.D.H.J.J.U.U.",
"G.G.A.A.H.H.H.H.e.U.U.q.E.j.s.M.&X .^ P K R E E _ X.*.*.*.,.,.:.>.>.>.*.*.*.%.%._ E R J F ~  .4XC.k.h.t.i.w.3.6.Z.Z.D.H.J.J.I.I.",
"G.A.e.e.e.e.e.e.H.e.t._.s.v.m.4X[ ^ J J T W ' X.%.*.,.,.,.,.1.1.<.<.<.,.,.>.*.*.` E E W R Q Q ^ &XC.v.s.0.P.U.3.Z.D.A.H.H.H.U.U.",
"G.A.A.e.e.e.e.e.e.i.s.s.2Xl.&X[ P T T R ! _ &.<.,.,.,.,.<.<.<.<.eXeXeXeX<.<.,.,.&.R J R R R T H [ { C.V.s.g.E.A.A.A.K.H.H.H.H.P.",
"U.U.U.H.H.H.H.H.y.j.n.v.l.;Xp r H J T R J K ( =.<.<.<.<.DXDXDXeXeXeXDXDXDXDXeX<.:.U F K H T W Q w ~ { &XV.v.p.W.P.H.K.K.H.H.H.H.",
"A.P.H.H.H.A.H.J.E.g.V.C.B.y L F H H H K w q G ) -.DXFXDX<.eXeX,.<.<.=X=X=X=X=X<.-.Y I / D H U K Q P L [ &X*Xs.^.I.U.U.K.H.H.H.H.",
"e.H.H.K.H.A.H.U.p.b.v.;Xp 9 ( H H F F K G w r Y ( -.DXDX<.DXFXDX=X=X=XDXDXDXDXDX-.Y e I I U U H T ! F y } *Xv.j.i.I.Y.K.H.H.H.H.",
"H.J.Y.L.K.A.K.W._.N.2Xp 8 ^ J H F F F F F F F D U $.DXFXFXDXDX<.1.:.-.-.:.1.<.<.=.K D F H K H R J E R G ~ { m.j.p.H.H.H.H.A.A.A.",
"y.J.Y.U.H.A.P.g.v.4X] 4 L H J R H H H F F H F w q ) :.FXeX$.( ) e e e e I / ( ( ( H F H J F D J ! T R K 9 ] B.v.k.p.u.H.A.A.A.A.",
"u.J.H./.W.t.b.v.*X] r G K F F F F D D D D D w w w e I I G e w w w w w e e e w D F F F F F F F H H R H U Q G ~ 4Xl.k.0.~.q.w.L.A.",
"u.I.H.e.U.t.b.*X} ~ w F H F F D D e e e w w w q q w e e w w w w w w w w w w w w e e w D D D D F F U U U J D G | &XN.j.y.P.P.A.K.",
"u.y.P.3.W.g.M.4Xp r w F D D w w w w w w q q q q q q q q q q q q q q q q q q q q w w w w w D D D D F U F J F w y B.m.j.u.E.W.K.T.",
"y.H.P.q.^.s.M.l.t 9 D G D w w q q q q q q q q q q 9 9 9 9 9 q q q q q q q q q q q q w w w w w w D F I U H P L y ] *XN._.r.W.T.!.",
"Y.Y.A.i.g.v.m.i t q D G w w r 9 9 q 9 9 9 9 9 9 q 9 9 9 9 9 9 9 9 9 9 9 9 9 9 q q q q q q q q w G w I U F F G y t &Xv.`.t.P.T.D.",
"Y.Y.e.E.j.*Xm.7 0 q D D w w r 8 9 9 9 9 9 9 9 9 9 9 9 9 9 9 9 9 9 9 9 9 9 9 9 9 9 q q q q q q q w q D U F D D r t | 2Xk.g.W.D.S.",
"K.U.I.j.b.2X| t r q D G q q 0 8 9 9 9 9 9 9 9 9 9 9 8 8 9 9 8 8 8 8 8 8 9 9 9 9 9 q q q q q q q 9 q w D F F F G y p *XN.b.E.Z.S.",
"A.U.^.s.v.*X2 0 r w G I q 9 0 8 9 9 9 9 9 9 9 9 9 8 8 8 8 8 8 4 4 4 8 8 8 8 9 9 9 9 9 q q q q q 9 r q q F K F F r t } l.n.p.A.Z.",
"L.Y.h.n.l.} t r w w D e 9 9 0 8 8 9 9 9 9 9 9 9 9 8 8 0 8 3 3 4 6 u 4 3 4 0 8 8 9 9 9 9 9 9 9 9 9 q q w F w w F G 0 ] &Xv.j.e.D.",
"K.y.h.v.*X] t 9 w e I e 9 8 0 4 8 8 9 9 9 9 9 8 8 0 8 3 3 u u 5 5 2 5 u u 4 3 4 8 9 9 9 9 9 9 9 9 9 q q w U ( ' Y r ~ ;Xm.p.y.K.",
"K.y.j.v.-Xp t 8 9 9 e e 8 8 0 8 8 8 8 8 8 8 8 8 8 4 3 5 2 * * * * & * 2 2 6 6 4 8 8 8 8 9 9 9 9 0 9 9 9 e ..:.:./ y t ;XV.h.L.K.",
"A.H.j.M.4X7 t u u 8 8 8 4 4 6 4 4 8 4 4 4 4 4 6 6 2 2 1 * = a s s s a & & 2 u 6 6 4 4 8 8 8 8 8 u 8 8 8 f O.DX-.( 0 4 %XV.h.~.K.",
"Z.H.g.M.-X* 5 ) ..f 6 6 6 3 3 1 3 3 3 3 3 3 6 6 1 7 = % - @.xXzXxXxX+.s = = 1 2 2 5 6 3 3 4 4 4 6 4 0 3 u O.rXO.O.4 t | v.u.~.A.",
"Z.K.t.c.$X= 2 o.O.d 5 5 5 5 5 2 5 5 5 5 5 5 5 2 1 = & a Z nXAXkXvXVXVXzXx - % 7 2 2 5 5 5 5 5 5 6 6 t 3 2 k ;.;.#.5 a | v.~.L.Z.",
"!.D.Q.c.$Xi & x o.a * * * * 1 1 1 1 1 1 1 1 1 = - O - Z nXhX8.aXtXgXgXkXhXs O - = = 1 1 1 1 1 2 1 5 2 * * d o.#.o.2 1 %XM.~.K.D.",
"D.Z._.c.3X; + a x 7 % % % O % % % % % % % % % O O + s .XnXaXaXBXbXBXtXiXZXZ + + O O % % % % % & & & % O & a d x a & O -Xn.~.K.!.",
"A.Y.P.c.JX$   > l ; . . . . . + . . . . . . . .   o m iXiXlXgXlXgXkXiXkXVXiX#   . . . . . . . . . + . . + ; g x , . . 1Xz.I.A.T.",
"e.P.H.z.JX; X : A ; $ o . X @ X                 o   l lXCXiXVXhXlXkXlXhXV VX:                   X @ X   o ; g l S X   1X_.Y.w.H.",
"Y.H.J.d.1X; @ @ < o       X X @                 o o l lXhXV kXiXiXyXiXVXlXCXo                   X X X   $ ; z m , @ $ [.g.Y.H.L.",
"w.q.P._.3XmXSXMXyXM A g g > , : : : : # # # # # o # : lXiXjXhXhXhXCXiXyXiXyXo : # # # # # : : : , , > > g c V uXLXLXHX3Xd.J.H.q.",
"K.e.U.g.{.#XVXMXMXlXsXcXkXkXMXMXdXiXiXiXiXyXyXyXiXm o l iXkXyXVXhXiXiXVXyX> > B yXyXyXiXiXiXhXhXMXSXVXVXnXAXAXPXLXIXKX1X0.P.T.A.",
"A.A.Y.Q.].GXCXCXMXMXvXvXkXjXjXhXjXjXjXjXlXjXjXlXjXiXl > yXhXyXV lXB hXVXl # V kXlXlXlXlXlXlXlXkXkXSXVXVXnXCXZXZXUXAXGX,Xg.H.A.A.",
"A.A.Y.Q.x.GXnXMXCXCXnXkXlXlXhXhXiXiXiXiXdXhXhXhXjXhXV # : l iXjXiXhXV > o l VXyXhXhXhXhXhXhXjXjXkXkXnXCXCXZXLXLXLXAXGX].Q.A.A.A.",
"K.K.U.Q.x.JXmXCXMXSXkXlXsXlXjXjXjXjXjXjXhXhXhXhXlXB VXlXz : # : : : o > yXVXV kXjXjXjXjXlXlXkXkXVXnXnXnXVXCXZXLXAXHXJXc.r.A.K.K.",
"A.K.H.r.).1XGXvXSXMXMXlXsXsXhXdXhXhXhXhXhXiXiXiXhXhXiXiXiXV l z z l Z yXiXhXiXiXhXhXhXhXjXjXlXlXkXkXnXnXVXZXLXLXAXGX1X).r.H.K.K.",
"D.K.K.e.(.,X1XmXVXMXkXjXsXsXhXgXhXhXhXhXiXiXiXiXiXiXyXiXiXiXiXyXyXyXiXiXiXiXiXiXhXhXhXhXjXjXlXlXkXkXnXnXVXZXLXZXHXGX<X(.r.H.K.K.",
"K.K.P.e.i.z.{.mXvXMXkXhXsXsXhXhXhXhXiXiXiXiXiXiXiXiXyXyXiXhXjXjXjXjXhXiXiXiXiXhXhXhXhXhXhXjXjXjXkXkXvXnXVXZXZXAXHX1X).f.e.A.D.K.",
"D.D.P.A.e.d.].#XvXMXkXhXsXsXhXhXdXiXiXiXiXiXiXiXiXiXiXiXiXyXyXpXyXyXiXiXiXiXiXhXiXiXhXhXhXjXjXjXjXkXcXvXVXZXZXAXGX{.d.e.e.A.A.D.",
"G.G.U.U.H.e.x.@XcXkXkXhXsXsXgXgXdXiXiXiXiXiXiXiXyXiXiXiXiXiXiXiXyXiXiXiXiXiXiXiXiXiXiXhXhXhXjXjXMXkXcXcXVXCXZXAX1Xx.t.e.A.A.A.U.",
"G.U.U.L.K.H.z.{.mXvXkXhXsXsXdXdXdXiXiXiXiXiXiXiXiXiXiXyXyXpXiXiXiXiXiXyXyXyXiXiXiXiXiXiXhXhXhXhXMXjXcXcXnXCXZXmX1X).e.A.H.G.F.R.",
"R.Q.U.A.A.H.f.x.mXvXlXsXoXoXdXfXiXiXiXiXiXiXiXiXiXiXyXyXyXyXyXyXyXyXyXyXyXyXiXiXiXiXiXiXiXhXhXhXNXjXcXcXnXCXCXmX,X(.H.K.H.G.U.R.",
"R.R.A.w.w.H.i.a.@XcXcXsXoXaXfXfXiXpXpXpXpXpXpXpXyXyXpXiXdXdXuX0XuXpXiXiXiXyXyXyXiXiXiXiXgXgXhXhXNXMXlXcXvXnXmX#Xx.E.L.H.A.A.G.F.",
"r.A.A.e.w.w.t.d.x.,X@X X|.gXNXNXuXpXpX.XXX.XyXyXyXyXuXuXfXfXwXwXfXuXuXuXuXyXyXyXsXyX.XyXiXiXiXgXNXMXkXsXcX#X1X>X(.I.L.K.H.H.A.A.",
"A.A.A.A.e.e.e.r.d.x.{.@XOXpXtX8XuXtXtX8.8.yXyXyXyXyXuXuXuXqXqXqXfXuXuXuXyXyXyXyXyXyXyXiXiXiXiXdXNXNXjXcX#X@Xx.g.f.H.H.H.H.H.A.A.",
"A.A.A.A.A.e.H.P.f.z.x.[. XXXyXdXfX8X8X8XuXuXuXyX.X.X.X.XXXXXXX.XyXyXyXyX.XyXyXyX8.yXiXuXuXdXdXdXjXgXaXOX@X].x.g.i.H.H.H.H.A.A.A.",
"A.A.H.H.H.H.H.J.P.f.z.].[. XoXaXfXtX8XfXuX8X6XtXV V +.XX|.|.|.|..X.X+.+..X0XyXyXyXpXpXyXpXdXgXiXaXoXOX#X@X].z.E.y.H.H.H.H.H.A.F.",
"A.K.K.K.K.K.L.L.y.P.(.x.].[.'.b 8.V .XyXyXV V 6X6X0X0X0X+.+.+.+.+.+.+.+.0X0X0X0XuXuXyXtXyXpXpXXX9. X@X1X<Xx.g.E.H.H.H.H.H.U.P.P.",
"K.K.K.K.K.K.K.L.e.H.i.d.x.].[.'.9.M M 8.V B C 6X6X6X6X6XV V V V +.+.V V V 6X6X6X6X7X6XyXyX8.V 9. X[.{.}.x.z.E.^.H.H.H.K.J.U.P.P.",
"K.K.K.K.K.K.K.L.H.e.q.0.a.x.].1X X9.M M C B C 6X7X7XC C B B M M M M M M B C 7X7X7X9X7XuX6XB 8.OX@X].x.c.a.f.^./.H.K.H.H.J.P.P.P.",
"K.K.K.K.K.K.K.L.K.e.e.P.f.a.c.,X@X Xn b M M B C B B B B B M M M M M M M B B C C 6XZ B 8.M v oXGXx.z.z.g.E.^.Y.y.K.K.K.J.U.P.P.F.",
"U.H.P.U.Y.H.A.A.K.A.H.J.P.d.z.x.].{.@X7.7.h b m m Z B B Z Z B C C 9X9X9XN B C C Z b n j 5.[.].x.z.f.f.i.H.H.y.e.e.e.A.e.e.e.r.P.",
"Y.U.P.U.U.A.e.A.A.e.e.A.y.t.d.d.).`.>X].{.'.7.h v c m m Z B Z N 9X9X9X9XN N m A h n '.].x.`._.g.i.i.i.y.H.H.H.e.e.e.e.A.A.H.P.P.",
"W.U.A.A.r.e.e.e.e.w.w.e.e.w.t.t.e.e.i.g.`.,X{.'.n v c c m N N N N N N m m m v j '.{.,X`.E.I.y.e.H.H.H.y.e.A.A.A.A.e.e.e.H.H.H.e.",
"U.H.e.r.r.t.e.e.e.e.e.A.e.e.q.w.e.y.y.q.t.z.x.].1X1X#X+X9.v b 9.9.b v 7. X#X1X1X].>X`.g.e.y.J.L.H.A.H.e.e.e.A.A.A.e.w.e.H.H.A.e.",
"H.e.e.A.P.r.e.e.e.A.A.A.A.e.w.w.w.y.i.i.t.a.a.a.a.x.].].].].<X3X3X<X>Xx.x.x.z.z.a.z.z.z.g.Q.Q.Q.e.A.e.e.e.e.A.H.H.A.e.e.H.J.H.e.",
"A.e.e.H.U.P.A.H.A.A.A.A.A.A.A.e.w.e.q.P.i.W.E.E.P.f.r.d.f.g.g.f.i.y.y.y.i.P.I.P.E.E.E.Q.Q.Q.d.r.e.A.H.A.e.e.A.P.Y.J.H.H.Y.Y.L.H.",
"K.H.A.H.U.P.P.P.K.K.K.A.A.K.K.H./.Y.e.H.e.L.A.H.H.H.e.y.Y.Y.Y.I.y.y.H.H.L.L.J.H.K.K.K.K.L.L.T.T.A.P.U.U.P.A.U.U.Y.U.U.U.Y.L.L.L.",
"T.K.A.A.H.H.U.U.T.T.T.K.D.K.T.U.H.T.K./.A.K.e.K.A.H.L.K.H.H.H.J.J.J.H.H.H.H.H.K.A.K.T././.T.K.A.A.U.Y.Y.U.U.U.Y.U.J.U.U.H.H.H.K."
};
