/* XPM */
static char *b0aa2445dea24f3dbe8cef46d2c5e95eq82Z57uzVboFIJjH[] = {
/* columns rows colors chars-per-pixel */
"64 64 233 2 ",
"   c #170D0E",
".  c #1E130C",
"X  c #1B150E",
"o  c #1E0F12",
"O  c #1D1412",
"+  c #1C1717",
"@  c #1E1915",
"#  c #23140D",
"$  c #251A0F",
"%  c #2B1E0F",
"&  c #220F11",
"*  c #241414",
"=  c #291716",
"-  c #251B14",
";  c #2B1C15",
":  c #25141A",
">  c #28171C",
",  c #241B19",
"<  c #2C1C1C",
"1  c #311E1B",
"2  c #1D231A",
"3  c #2C2214",
"4  c #2B2516",
"5  c #25231B",
"6  c #2D221B",
"7  c #242A1E",
"8  c #2C2A1D",
"9  c #322316",
"0  c #382717",
"q  c #33241C",
"w  c #352A1D",
"e  c #392B1D",
"r  c #2E311F",
"t  c #3A301C",
"y  c #281720",
"u  c #2C1B22",
"i  c #311F21",
"p  c #2D2422",
"a  c #2D2B23",
"s  c #282A26",
"d  c #332422",
"f  c #3A2624",
"g  c #352A23",
"h  c #3A2C24",
"j  c #3E2729",
"k  c #352C2A",
"l  c #3C2D2A",
"z  c #2D3223",
"x  c #2F332C",
"c  c #343424",
"v  c #3C3225",
"b  c #343926",
"n  c #3B3B24",
"m  c #34332C",
"M  c #3E322B",
"N  c #353C29",
"B  c #3D392B",
"V  c #3D3331",
"C  c #383734",
"Z  c #3D3A32",
"A  c #492A17",
"S  c #532C1A",
"D  c #5D321E",
"F  c #442E28",
"G  c #443426",
"H  c #4B3525",
"J  c #453C26",
"K  c #43342C",
"L  c #4C322D",
"P  c #443A2D",
"I  c #4A3C2D",
"U  c #573726",
"Y  c #543C2B",
"T  c #5C3C2A",
"R  c #443531",
"E  c #4B3533",
"W  c #463A33",
"Q  c #4A3B34",
"!  c #453D3A",
"~  c #4C3D39",
"^  c #563933",
"/  c #523C3B",
"(  c #623C29",
")  c #3C442B",
"_  c #3D4A2E",
"`  c #44432E",
"'  c #47462C",
"]  c #57472D",
"[  c #51542E",
"{  c #4D4235",
"}  c #4D423B",
"|  c #494539",
" . c #524334",
".. c #5C4933",
"X. c #52433C",
"o. c #5A443D",
"O. c #554A3D",
"+. c #5A4B3D",
"@. c #4C5837",
"#. c #535B32",
"$. c #565738",
"%. c #6A452E",
"&. c #64542C",
"*. c #644434",
"=. c #644738",
"-. c #644C3B",
";. c #754E36",
":. c #685836",
">. c #74543D",
",. c #7E573F",
"<. c #576537",
"1. c #5D6B3A",
"2. c #5F7238",
"3. c #6D623A",
"4. c #626D3B",
"5. c #70613A",
"6. c #69783B",
"7. c #73793C",
"8. c #533E40",
"9. c #4C4342",
"0. c #464946",
"q. c #4C4A44",
"w. c #554542",
"e. c #564B42",
"r. c #544946",
"t. c #5B4B44",
"y. c #5C4D4A",
"u. c #5C5145",
"i. c #555749",
"p. c #5D534A",
"a. c #585551",
"s. c #654C43",
"d. c #614E4C",
"f. c #615244",
"g. c #6B5645",
"h. c #63544C",
"j. c #64594C",
"k. c #6C5B4C",
"l. c #745744",
"z. c #7C5B44",
"x. c #655651",
"c. c #645A52",
"v. c #6B5C53",
"b. c #665A59",
"n. c #6B5C59",
"m. c #715E55",
"M. c #646747",
"N. c #786547",
"B. c #6B7745",
"V. c #71774B",
"C. c #686552",
"Z. c #6D6254",
"A. c #6E6259",
"S. c #796656",
"D. c #73645B",
"F. c #737558",
"G. c #6B6E65",
"H. c #756661",
"J. c #766A62",
"K. c #7B6C64",
"L. c #7E6F68",
"P. c #7E736A",
"I. c #84644E",
"U. c #89664D",
"Y. c #866B58",
"T. c #926D54",
"R. c #88705D",
"E. c #93745E",
"W. c #81726B",
"Q. c #88786B",
"!. c #967A64",
"~. c #867A71",
"^. c #897B73",
"/. c #897977",
"(. c #6C833B",
"). c #6B853C",
"_. c #7A863B",
"`. c #738D3C",
"'. c #6F923D",
"]. c #75943D",
"[. c #79933C",
"{. c #76993E",
"}. c #7C9C3D",
"|. c #7EA23E",
" X c #7EA83D",
".X c #758D42",
"XX c #758548",
"oX c #7A9442",
"OX c #7D9C41",
"+X c #799846",
"@X c #7C8559",
"#X c #7EA242",
"$X c #7F836B",
"%X c #869B3D",
"&X c #81A43E",
"*X c #83AA3E",
"=X c #8AAC3E",
"-X c #86B13E",
";X c #8BB33D",
":X c #8DBE3F",
">X c #92B23E",
",X c #90BF3E",
"<X c #8EC13F",
"1X c #92C43E",
"2X c #98C73D",
"3X c #96C93D",
"4X c #9ACA3C",
"5X c #A1CD3A",
"6X c #829C45",
"7X c #869E4E",
"8X c #89835A",
"9X c #849B54",
"0X c #84A542",
"qX c #84AB41",
"wX c #89AA46",
"eX c #87B542",
"rX c #89B641",
"tX c #86B940",
"yX c #89BB40",
"uX c #89BC40",
"iX c #95BA43",
"pX c #89A751",
"aX c #8B877A",
"sX c #978A74",
"dX c #94867D",
"fX c #96887E",
"gX c #8F8480",
"hX c #968782",
"jX c #9F9188",
"kX c #A7988D",
"lX c #9AA184",
"zX c #B0A599",
"xX c #BCADA6",
/* pixels */
":X<X1X1X1X<X1X1X1X1X3X3X3X3X3X3X1X1X1X1X1X1X1X<X1X<X<X1X1X1X1X3X4X3X1X1X1X1X1X<X1X1X1X3X3X3X1X1X<X1X1X3X3X1X1X<X1X<X<X1X1X1X1X1X",
"<X1X1X3X1X<X1X1X1X1X1X3X3X3X1X1X1X1X1X1X1X<X1X1X1X1X<X<XeX6XB.9XpXeXuXuX:X1X<X<X1X1X1X1X1X1X1X1X3X3X3X3X3X3X3X3X<X<X<X<X1X1X1X1X",
"1X1X3X3X1X1X<X<X1X1X1X1X1X1X1X1X1X1X1X<X<X-X#XqX;X1X<X0X<.M.$XaXlX@X7XrX1X1X1X1X1X1X1X1X1X1X1X1X4X3X3X3X3X4X4X4X<X<X<X<X<X<X1X1X",
"1X1X3X3X3X1X1X<X<X<X<X1X1X1X1X1X1X1X<X<XqXB.B $.[ 0X0X#.W i.e.aX~.aXC.B.7XwXwXwXqXrX1X1X1X1X1X1X1X1X1X1X1X3X3X4X<X<X<X<X1X<X<X1X",
"1X1X1X3X3X3X1X1X<X<X<X<X<X<X<X<X1X*XoXXXF.| k r.g V.F.{ J.p.P c.e.u.W 8 B M.F.M.F.XXwXqX:X1X1X1X:X<X1X1X1X1X1X1X<X<X<X<X<X1X1X1X",
"1X<X<X1X1X3X1X1X<X<X<X<X:X:X<X<XoX` 5 g p 9.b.d y.6 M t.p.W c.P w h.P v A.u.P P.p.j.C.@X6X:X1X1X:X<X1X3X3X1X1X<X<X<X<X1X1X1X1X1X",
"1X1X<X<X1X1X1X1X1X<X<X:X:X:X:X.X` V y.b.p d p.y.6 Q q g X.P P G I Q O.Q e O.A.j.j.C.e.F.[ OX1X1X<X<X1X1X1X1X1X<X1X1X1X1X1X1X1X1X",
"3X1X<X:X<X1X1X<X1X1X<X:X:X:XOX` d R i < / ~ d R d.K.K g w y.D.Z.Q.k.Q.kXv.h I O.v.h.dXp.O.4.;X1X<X<X<X<X<X:X:X<X1X1X1X1X1X1X1X1X",
"1X1X<X<X<X1X1X1X<X1X1X1X<X<X.X5 d j E l < Q x.t.R ~ K h X.x.n.D.v.-.S.S.Z.+.G t.f.v.j.O.O.n [.1X<X:XuXtXeXtXtXuX:X<X1X1X1X1X3X3X",
"<X:XuXyXyXtXyXtXuX:X:X1X1X1X.X+ K f q d l X.x.d.g X.E ; h h.D.v.R.k.R.S.k.+.h P X.f.h.t.{ 8 _.1X1X<X:XuXyXuXuX:X:X1X1X1X1X1X1X1X",
"1X1X<X:X:XuXyXuXuX:X<X1X1X&X$.p ; ; < q q # ; K ~ m.h.g q Q w.t.k.+.f.+.X. .h v 0 q q v P 4 7.;X<X<X<X<X<X<X<X<X<X1X1X1X1X1X1X1X",
"1X3X3X1X1X<X<X1X1X1X1X1X;X1.+ V ~ f.v.D.v.g ; o.h.D.D.t.K ; ; R I G H K  .f.h.k.~ g # q ~ h M.XX0X1X1X1X1X1X1X1X1X1X3X1X1X<X1X1X",
"<X1X1X1X1X<X1X1X3X3X3X1X&Xb C p X.X.t.D.L./ 9 K y.h.h.h.t.K q e ; 9 q H X.h.D.K.v.O.q M p.! w.c XXOXeX3X3X3X1X1X1X3X3X3X1X1X1X1X",
":X1X1X1X1X1X1X3X1X1X1X1X&Xa C V ~ ~ t.n.v.E e I t.h.t.t.D.H.t.g q h h  .t.t.v.j.h.e.d g } ! ~ Z s m @..X3X1X1X1X1X1X3X3X1X1X1X1X",
"1X3X4X4X3X1X3X3X<X1X1X1XOXa O 9.h G t.u.K q e h X.t.X.~ h.n.y.X.j.u.P t.h.X.p.u.p.e.k M | k 8 m 0.0.C @.#X1X1X1X<X1X1X1X1X<X1X1X",
"<X3X4X3X1X<X1X1X1X1X1X*X@.p + k M h E o.Q ~ Q q 6 q q h h q l x.D.t.; h K q W ~ h h k c.J.~ * = , q.s 5 1.-X<X<X<X<X1X<X<X:X<X<X",
"1X1X4X4X4X1X1X5X4X1X:X2.5 p < } t.G q h w h.X.X.< K h 6 h h h ~ h.t.h q ; q K ; < ; g K K g 6 6 X g - + [ |.;XrXrXeXeXrX:X,X1X1X",
"1X1X1X4X1X,X1X4X1X1X:X).5 l w.y.^.D.Z.K w X.h.h.o.w.W K ~ M < h K K h K h R h.h.q q q q q K D.jXaXp.e.{ ' OX:XyX:X:X:X:X1X1X1X1X",
"1X,X1X1X1X:X:X1X1X1X1X&X5 V p.R h.v.Q.G q v h.h.h g q K w.X.M M l E X.w.h ; K K ~ q # l t.y.y.h.zXZ.v.c.P 7.:X1X1X1X,X1X2X4X2X1X",
"2X1X,X1X1X1X1X:X1X1X1X}.5 p y.l  .f.L.{ q h X.O.X.o.E q ; q q q g E y.A.X.q h h W q q K ~ X.h.L.~.j.c.A.} z *X1X4X2X1X1X2X4X4X4X",
"4X2X1X1X1X4X1X1X:X:X*X#.+ * w.t.j.f.h. .; h e I { v.v.Q K D.kXxXq h ~ h.X.g K K n.e.K g g h X.v.v.D.D.A.b.z }.1X4X2X1X1X1X2X4X4X",
"4X4X1X1X1X4X4X1XyXrX`.a p * M w.Q G G { q { h G q t.v.E ; E D.K.g g d K h q K h E h 6 d Q t.y.t.u.j.h.u.c.M.0X:X2X1X,X:X1X1X2X2X",
"2X4X2X1X1X4X4X2X:X*X<.5 M < * q 9 9 J { O.D.j.+.w J t.Q ; q K h h h q h M E p.X.X.h.h.K ; ; K X.v v g M R M.0X:X1X,X:X,X1X1X1X1X",
"1X2X1X1X,X2X4X2X1X}.b p p p * < h e  .0 I j.S.t.+.h h v q K y.h.K K g h g l ~ q q W Q q ; ; < # ; X . g 6 8 +XyX:X:X:X1X1X1X1X:X",
"1X1X1X:X:X:X:X,X1X[.5 ! k g y.h.W.S.I 0 { u.{ P Q G E h.fXo.K.hX^.X.h E o.n.c.h ; q q X.^.L.K # P P X.| = 5 4.qX1X1X2X1X1X1X1X1X",
"1X1X1X:X:X:X1X1X1X.Xp W k i E X.L.jXD.h q { h h q y.L.D.^.} p.y.M L.^.h.W q K D.g h ~ h.D.D.h.K 6 { v } p.V b B.,X2X4X4X1X1X1X1X",
"1X1X1X1X,X1X1X1X;X<.a p u < i E ~ Q.j.h w P q E v.^.dXc.h.g ~ R x.h.X.h.L.h.q g h q w.v.p.h.y.q 6 j.P O.c.| O _ *X2X4X4X2X1X1X2X",
"1X1X1X1X1X1X2X4X&Xb g < g g = l h X.P K h.M ; X.o.w.y.~ X.q g q M h h.L.A.c.t.q h q l ~ ~ X.E - . v ; g 6 } p N 0X1X1X1X1X1X1X1X",
"1X1X1X1X1X1X2X4XoXa ! ! y.w.i 1 q 6 h M K.K R n.w.R R d d * * * = ; K X.h.dX~.h E K ; ; M R E t.~.P.t.O.8 C + ) *X1X1X1X1X1X1X1X",
"1X1X1X1X1X1X;XOXM.p 9.b.H.y.E d q g E 6 X.h w.b.b.w.w.*   * > * . q q g w.t.t.D.E X.K h W g h D.j.Z.| M p @ 5 ).1X1X1X1X1X4X1X1X",
"1X1X1X1X1X;X1.` Z + l y.y.~ w.K E w.X.g * R w.w.~ * d < * i : * < ; . ; ~ K K D.X.E ~ y.X.q q t.v.Z.c.} g @ 8 .X1X1X1X1X4X4X4X4X",
"1X1X1X1X1X|.b + 5 < < E g < X.R d K q ~ d W././.gX<   : : > o u * # ; # 6 n.W.} v.q h h.X.h W t.D.P j.} d k k ` 6X1X1X1X4X4X4X4X",
"3X1X1X<X:X1.8 ! W ; ; M ~ ~ K q q l R M K g h.d R = o : : : : : > O * > = y.~ X.h.# q h.Q q W } u.h.e.K h 6 6 M b *X<X1X3X3X1X<X",
"1X1X1X<X*XN k r.x.R d h } h.u.P K ~ A.w.K E j.u.~ < * < > > > y y : : * * t.~ E h.q E H.y.d d d w h q 6 g l R e.v `.1X1X1X3X1X<X",
"<X1X1X<X|.2 V y.p.Q d q P h.t.q q ; y.h w h.~.jX~ < * > : : > > > : > * = y.y.X.t.h o.W.n.l > d g w ; - g K ~ t.h 6.:X1X1X1X1X<X",
"<X1X1X1X|.2 } ~ c.X.l g h { { h q ; K q $ K X.} ~ 6 = * * * : : : : > * < x.D.h.X.h E v.x.R j X.y.O.v q K Q W ~ k #.=X1X1X1X<X<X",
"<X1X1X1X&X7 V j W l W X.P h w 6 q d q K h u.fXfX~ q > > : : y y * : : * d t.D.p.Q g g E W h l } v.h.Q K } X.~ ~ ~ ` 0X1X1X<X<X<X",
"1X1X3X3X&Xz < d X.h h h q 6 G X.R } d h . ; v.n.K < > > : : y > : : * * q K h.~ R g d g 6 d j d t.O.P K ~ ~ W Q W 7 `.1X<X<X<X1X",
"1X1X3X3X;X<.6 d ; h h.^.~.D.{ ; h Q w.h.h G E K g ; = : * : y : > : * : j h h.X.K g M h 6 Q w.d K P v h K K h l d 7 ).1X<X:X1X1X",
"<X1X3X1X<XOXv < ~ ~ t.c.D.K.j.G X.d K Q h A.v.K.d ; ; > : > u > > : : d ~ R D.h.K g E K h v.W.} 6 h h g M h d l < _ &X1X<X<X1X1X",
"1X1X<X1X1XqX` R K ~ t.h.v.Z.u.Q ; K E w.g { } } q ; * * : : : > : : : : < t.X.X.X.; g g ~ ~ y.x.; ; W v.h.X.R l w [.1X<X1X1X1X3X",
"3X1X1X1X1X0X{ ~ l ~ h.L.~.K.h.X.q R X.t.M t.n.H.g < * > > : : > > > > d j n.v.D.~ o.D.R h R w.~ K v { h.v.x.x.y.J 0X1X1X1X1X1X1X",
"3X1X1X<X-X#.< < e.~ o.v.A.c.h.h.q h g h ; E O.t.h 6 * * > > : : : : * * * w.X.t.6 ; ~ g h h R M q w Q h.v.v.h.~ { 6X1X<X<X<X1X1X",
"1X1X1X<X*Xb d ~ R Q t.v.v.u.{ K h q ; q h t.h.X.g ; * * > > : : y > : * * w.~ w.h # h ; q ; * = q h X.c.v.n.y.R W $.qX:X:X:X<X1X",
"1X1X3X1X-X' 6 E K o.p.u.y.p.X.h M d q ; q K O.~ q = * * > > y y * : : < d x.h.v.K ~ h.q ; l E d g v { O.o.t.t.~ ~ d .XuX:X<X1X1X",
"1X3X3X3X1X(.a * Q t.t.W W t.u.~ # < R l Q h.hXkX; = * > u u u u : > : * = w.X.t.K q K ; l X.y.w.6 3 G } ~ ~ X.Q y.M <.:X<X1X3X3X",
"3X1X1X1X1X-X#.6 q R o.O.e.t.{ h ~ X.h.K g w t.u.; ; < d d > y u l l d > = X.X.y.y.# ; < W l j h h q M X.X.Q Q R w.W #.;X1X1X1X3X",
"3X<XuXtXuXqXB.* K R W Q ~ ~ ~ } K K t.K ~ K o.K # = < d < : * > > < * * = h.n.W.K d ~ q d h l q E ; # q q 6 h M k 8 6.1X<X<X1X1X",
":X:X<X:X*X1.R * > d ! } g < j K q q q h X.f.m.Q.q # 1 F d < < * ~ Q < = & l K ~ q h h < ; q q ; K x.y.; M * * l k 7 &X1X1X1X1X<X",
":X<X<X:X4.6 , k p < d 6 p W w.W q K h.o.f K t.o.# # 1 K K F E / q h > = O l t.J.h.~ l h g ; 6 h d t.t.w.t.W , < Z oX1X1X1X1X<X<X",
"<X<X1X{.5 k   d k l l 6 < R ~ l 6 W h g y.x.X.X.< 1 1 q f f R d.g V d d * l } b.9.l 6 a g d M | h E E v.y.t.6 * k ' qX1X1X1X<X<X",
"<X1X1X<.5 , k , d ~ c.y.h 6 g h } , d ! 8 6 ~ W * > * & = & o i < d * d p 9.9.r.C ! Z a p m m a } e q X.K R k 6 p 2 }.1X1X1X<X<X",
"1X1X3X].a k M q.- v A.J.{ - q { i.q.a p q.! V n.< R E / d.8.j K g j u k d 9.! 9.@ x m s 5 s x a e.; 9 w g 6 K k - 5 1.:X1X1X1X1X",
"1X3X3X=X| k c.! 4 w O.Z.{ 3 w { c.Z m M | P.gXc.< f j F / / E E ~ w.W R = l V r.C m C 0.0.0.a.G.Q ; h h G 4 W l 8 X 7 `.1X1X1X1X",
"3X3X3XOX5 | | 6 v w P O.v 3 0 J c p.} 5 8 ~ X.t./ E E E L ^ =.=.L / K K ; K X.c.M a 5 z m x C | v 3 w v v v P M @ m O ) :X1X1X1X",
"3X3X3X1.5 p M X.v v P ` w 3 t J O.{ v 4 ; e K F Y Y =.s.^ ^ *.U =.=.F G 0 I G P q g g 8 Z i.i.| w w $ w 6 P P ! W Z c ].1X1X1X<X",
"3X1X1X`.z , | B w c B n w 4 4 4 w t I +. .H ..m.Y.T U *.S U %.( U *.T A l.-.] H I e 3 3 v ` { P w $ ; G X.P w 4 ! Z r {.:X:X<X1X",
"4X3X1X1X`.' k M g v { u.j.$.J 9 J 9 0 -.R.Y.>.T z.U U ( S A D A ( %.( A >.;.*.U -.A % $ 3 {  .3 - e v 3 - v { { Z @ 8 ].<X<X1X1X",
"4X3X<X<X;X(.) b c 8 w B u.C.j.O.k.] A Y -.*.U S z.%.;.,.%.%.;.%.I.z.>.T %.T U 0 *.Y  .G # # 0 % $  .j.} v v k 5 q.7 _ '.<X1X<X<X",
"3X1X:X<X<X:X*X X{.(.#.) n ' O.u.k.-.=.=...=.S.sXI.z.U.E.U.U.T.T.I.z.z.>.>.z.I.g.Y H H Y  .H F I +.u.u.W g k Z B n <.{.uX<X1X<XuX",
"1X<X:X<X1X<X:X:X:X:X:X*X}.`.4.[ ' ' ] ..-.g.S.R.!.R.!.E.U.I.U.U.!.E.Y.N.l.l.g.-.=.Q.m.s.K.m.o.D.t.$.{ n c ) #.2.|.-X:X<X1X1X1X:X",
"1X<X:X1X1X1X<X1X:X<X<X:X<X<X<X:X*X*X%X%X_.7.:.&.3.3.3.:.&.&.&.&.:.5.:.:.&.3.3.N.] 8X8X] ] ..J [ B.oX0X}.].|.-X1X3X1X1X1X3X4X3X1X",
"3X<X:X1X1X1X1X1X1X3X1X<X<X1X3X1X1X1X3X1X1X1X:X:X;X;X;X;X;X;X;X;X=X=X=X=X=X=X=X=X=XiXiX>X;X;X;X;X<X1X3X1X1X1X1X3X3X3X3X3X3X3X3X3X",
"4X1X<X<X1X1X1X3X4X4X4X1X1X4X4X4X3X4X3X3X1X<X<X<X1X1X1X1X1X1X1X1X1X1X1X1X1X1X1X<X<X1X4X4X4X3X3X1X<X3X4X4X3X1X3X4X1X1X3X3X1X1X1X1X"
};
