/* XPM */
static char *_ce17bf124c3413fbe9c7bfc383f8ec5DE6iUavmJR5M3uSF[] = {
/* columns rows colors chars-per-pixel */
"64 64 256 2 ",
"   c #313112",
".  c #39382A",
"X  c #3C3631",
"o  c #312F2A",
"O  c #222416",
"+  c #561900",
"@  c #573829",
"#  c #583635",
"$  c #4A332C",
"%  c #773624",
"&  c #6D3535",
"*  c #643611",
"=  c #384812",
"-  c #3E4828",
";  c #72751B",
":  c #43462A",
">  c #46542B",
",  c #434536",
"<  c #4A543B",
"1  c #565A37",
"2  c #55502F",
"3  c #78473A",
"4  c #6F5133",
"5  c #566337",
"6  c #566A2E",
"7  c #6C7131",
"8  c #59521B",
"9  c #073051",
"0  c #2B3E56",
"q  c #001748",
"w  c #453C49",
"e  c #503C4C",
"r  c #603753",
"t  c #1D4A57",
"y  c #395353",
"u  c #1C4F6F",
"i  c #2C4F6E",
"p  c #366B68",
"a  c #3F645C",
"s  c #474948",
"d  c #544D49",
"f  c #4A544A",
"g  c #555649",
"h  c #4C4A56",
"j  c #554B57",
"k  c #4D5254",
"l  c #4A5659",
"z  c #565758",
"x  c #77524F",
"c  c #596346",
"v  c #596656",
"b  c #4B6E58",
"n  c #636748",
"m  c #6A7649",
"M  c #757A55",
"N  c #6D6E52",
"B  c #4D4964",
"V  c #544D64",
"C  c #4E5868",
"Z  c #585665",
"A  c #585774",
"S  c #554A72",
"D  c #655D78",
"F  c #615A66",
"G  c #4D6965",
"H  c #546C74",
"J  c #69777B",
"K  c #6B696E",
"L  c #922F0A",
"P  c #8D3333",
"I  c #A23A37",
"U  c #854614",
"Y  c #8D4E31",
"T  c #AB4F31",
"R  c #8D7132",
"E  c #A26022",
"W  c #CA5D3E",
"Q  c #8A3B48",
"!  c #924D4C",
"~  c #AB5152",
"^  c #936E53",
"/  c #A76D4A",
"(  c #88566A",
")  c #896169",
"_  c #936C70",
"`  c #AA7268",
"'  c #C37F6A",
"]  c #7CB90D",
"[  c #6F862F",
"{  c #74B12E",
"}  c #6F9600",
"|  c #7A8E4D",
" . c #768175",
".. c #599C50",
"X. c #75C240",
"o. c #85AB04",
"O. c #85B500",
"+. c #89B600",
"@. c #85B901",
"#. c #8CBD01",
"$. c #8DBC0B",
"%. c #88B60B",
"&. c #91BE02",
"*. c #9DBD02",
"=. c #93BE0C",
"-. c #99BD0E",
";. c #95B308",
":. c #88AC19",
">. c #8DB714",
",. c #93BC14",
"<. c #93BA1C",
"1. c #98B818",
"2. c #94A70E",
"3. c #A2BC07",
"4. c #A4B917",
"5. c #A5AD19",
"6. c #929E2F",
"7. c #A29735",
"8. c #8BAB26",
"9. c #98AD25",
"0. c #8BB827",
"q. c #97B927",
"w. c #98AA3B",
"e. c #99B836",
"r. c #8AB535",
"t. c #A4BB27",
"y. c #A4B936",
"u. c #AFB02E",
"i. c #A89E1A",
"p. c #84C302",
"a. c #8EC101",
"s. c #8CCA01",
"d. c #8CC20B",
"f. c #8AC909",
"g. c #93C402",
"h. c #99C503",
"j. c #95C904",
"k. c #9ACA05",
"l. c #94C40A",
"z. c #9AC40B",
"x. c #94CA0B",
"c. c #9BCB0A",
"v. c #8BD002",
"b. c #92D100",
"n. c #9CD103",
"m. c #98D407",
"M. c #89C415",
"N. c #93C413",
"B. c #9AC313",
"V. c #9BC21B",
"C. c #99C916",
"Z. c #98D213",
"A. c #A5C706",
"S. c #A2D20E",
"D. c #A6C915",
"F. c #A7D518",
"G. c #88C627",
"H. c #9BC327",
"J. c #9DC436",
"K. c #8FD632",
"L. c #A4C628",
"P. c #A5C536",
"I. c #B3D032",
"U. c #C2D53E",
"Y. c #918F51",
"T. c #B39051",
"R. c #97A846",
"E. c #99B547",
"W. c #96AB55",
"Q. c #96B459",
"!. c #8AAD4D",
"~. c #A7BA48",
"^. c #ADB152",
"/. c #94926B",
"(. c #B19971",
"). c #9CA867",
"_. c #9EB266",
"`. c #99A674",
"'. c #ABA66D",
"]. c #B7AE69",
"[. c #A9B77A",
"{. c #BAB876",
"}. c #ADB569",
"|. c #CAB251",
" X c #D59377",
".X c #C9A97B",
"XX c #CFB46B",
"oX c #DAA76D",
"OX c #9AC343",
"+X c #A9C648",
"@X c #B7C646",
"#X c #AAC557",
"$X c #AECA62",
"%X c #B3CE70",
"&X c #A1D26D",
"*X c #C7C649",
"=X c #CBD379",
"-X c #CCE274",
";X c #DAD86C",
":X c #2C5091",
">X c #336787",
",X c #325AA9",
"<X c #4F6B8B",
"1X c #6C7189",
"2X c #526C9E",
"3X c #927486",
"4X c #A36C83",
"5X c #708D97",
"6X c #4D81AB",
"7X c #578499",
"8X c #5B8FCB",
"9X c #8F988C",
"0X c #B38E8F",
"qX c #9CAE8C",
"wX c #AFAE8E",
"eX c #9192AF",
"rX c #97B4A4",
"tX c #93A7B0",
"yX c #B8B9A3",
"uX c #B691B8",
"iX c #CDAF90",
"pX c #EFB794",
"aX c #D19CB3",
"sX c #E9B7BA",
"dX c #CB958A",
"fX c #B4CD93",
"gX c #B9C4A4",
"hX c #B1C7AF",
"jX c #A4DD96",
"kX c #CDD48A",
"lX c #E6D492",
"zX c #D6EC8A",
"xX c #EBE892",
"cX c #C6D8B5",
"vX c #CACEAD",
"bX c #CFEAB3",
"nX c #E9D5A8",
"mX c #B2AECE",
"MX c #93A1C6",
"NX c #C9AECC",
"BX c #D5BAED",
"VX c #B2CCCB",
"CX c #BDCCE4",
"ZX c #CBD7D4",
"AX c #ECDACA",
"SX c #DDF2D5",
"DX c #D4E7CD",
"FX c #E5F3D0",
"GX c #CAD4E4",
"HX c #ECD7F7",
"JX c #D6E7F7",
"KX c #DBFAFA",
"LX c #CDF0EA",
"PX c #E4ECE8",
"IX c #E8F7FC",
"UX c #F2F2F2",
/* pixels */
"#.a.g.g.g.g.g.g.g.g.j.j.k.k.j.h.k.h.z.l.g.a.a.s.p.M.p.@.g.k.-.z.n.j.g.g.+.S.@.h.h.j.g.j.l.N.l.x.a.g.j.j.j.g.g.a.g.g.g.g.g.g.g.g.",
"a.g.j.g.g.g.g.g.g.g.j.j.j.j.j.g.h.h.g.l.g.a.a.a.a.@.@.F.z.,.:.H.N.N.<.H.V.I.g.#.g.g.g.j.l.l.l.g.j.j.k.k.k.c.k.k.a.a.g.g.g.g.g.g.",
"g.g.k.j.j.g.a.a.g.g.g.g.j.g.g.g.g.g.g.a.g.g.g.g.j.=.I.} J.E.-XQ.%X&X!.!.{ 0.g.g.g.g.g.l.N.l.g.g.k.c.j.j.j.c.c.c.a.a.a.g.g.g.g.g.",
"g.g.j.c.j.j.g.a.g.a.g.g.g.g.g.a.d.d.a.a.g.g.h.*.D.;.q.~.kXbXbXhXrXhXrXcX&Xr.N.j.a.g.l.l.l.l.g.g.g.g.g.g.j.j.c.c.a.a.a.a.g.g.a.g.",
"g.g.g.l.k.l.j.g.g.a.a.a.a.a.a.d.M.M.p.a.g.g.h.3.;.4.-X[ FXPXIXH <X2X1XVXfX!.%.a.a.g.=.,.B.g.g.g.#.a.g.g.j.j.g.g.a.a.a.g.g.g.g.g.",
"g.g.g.g.l.l.l.g.g.g.a.#.#.#.#.d.M.M.s.s.g.h.z.D.D.1.w./.PXHXmX1X2X<X<XVXbX-XL.F.a.g.l.B.l.g.g.g.#.a.g.j.j.j.g.g.g.g.g.g.g.g.g.g.",
"l.g.a.a.l.l.l.g.l.g.a.#.#.#.#.d.M.d.s.s.j.j.z.D.;.9.R.m UXUXHXuX1XA 1XZXFXzX<.+.g.g.g.l.l.g.g.g.g.g.g.g.g.g.g.g.g.g.g.g.g.g.g.g.",
"x.l.#.#.a.g.g.g.l.g.a.#.#.#.#.a.g.g.g.j.j.j.x.V.q.w.Y./.UXHXuXuX3X_ 0XvXvXzXq.=.g.g.g.g.l.g.g.g.g.a.a.#.#.#.a.a.g.g.g.g.g.g.j.j.",
"l.l.g.a.g.g.g.g.g.g.g.g.g.a.#.&.&.h.h.g.s.b.Z.G.OXQ.7 2 N ) ( _ ^ ! ^ ^ 4 {.~.t.&.j.k.n.j.a.a.g.g.#.@.+.+.+.@.@.#.g.g.j.g.g.j.j.",
"a.#.@.@.@.@.@.@.@.#.#.g.l.l.l.h.*.A.h.g.j.s.f.>.!.[ =   ^ 3 ! % + + ! 3 _ 2 =Xe.z.h.k.b.j.j.j.g.g.a.#.@.@.@.#.#.a.g.g.g.g.g.g.j.",
"l.g.#.#.#.@.@.@.@.#.a.g.l.l.x.k.A.3.*.z.c.x.M.0.&X= O 2 .X.X X' L / ! aX) @ '.+X<.g.a.s.j.j.g.a.g.g.a.a.a.a.a.a.a.g.g.g.g.g.g.g.",
"l.l.l.l.g.g.g.g.g.g.g.l.j.j.g.h.A.*.*.z.j.d.<.e.6 O   /..XlX/ pX X X` sX4XO Y.E.,.a.p.a.a.a.a.g.g.g.g.g.j.g.g.g.g.g.j.j.g.g.g.g.",
"a.g.j.g.g.g.g.j.k.k.k.j.g.g.g.g.h.h.*.*.&.+.:.E.W.M . ) /.nX^ pXpX XdX0X0X= ^.8.=.g.j.j.g.g.k.c.g.g.g.j.j.j.j.g.g.j.j.j.g.g.g.g.",
"#.g.j.j.g.g.g.j.g.g.j.j.j.g.g.g.#.l.g.&.-.4.y.^.iXiX# $ x 0XiXdXiXiXdXiXY.}.+X<.a.s.j.j.g.&.z.S.g.g.g.g.j.j.g.g.g.j.j.j.g.g.g.g.",
"g.g.c.k.j.g.j.k.g.g.g.g.g.g.g.l.] M.a.&.D.I.*X^.(.iXsX3X3XK wXwX.X.X.X.XR.@XV.@.s.s.j.j.l.-.z.A.g.g.g.g.g.g.g.g.a.g.g.g.g.a.g.g.",
"g.g.k.k.g.a.g.g.g.g.g.g.g.g.g.a.$.M.l.;.t.|.|./ pXY sX_ e B l  .wXY./.kXw.q.] s.b.b.j.k.A.A.D.B.&.g.g.a.g.a.g.g.#.a.g.g.g.#.&.a.",
"g.g.k.c.k.g.g.S.k.g.#.#.g.c.c.j.g.Z.;.u.|.T./ % ! sX( e S i i i N - G b { G.M.f.m.n.z.h.k.k.N.q.$.#.#.@.@.+.+.+.+.+.+.+.#.&.&.g.",
"g.g.g.z.g.&.g.k.z.g.#.&.g.z.k.h.n.&.4.*XT.* % Q & 0X) 3XA 9 8Xu b b 0 t qXX.{ ] m.j.z.h.k.k.N.0.%.#.+.+.+.+.+.+.#.#.#.&.g.g.g.g.",
"g.g.&.g.g.&.&.g.g.g.g.g.g.g.k.k.m.a.z.I.7.Y _ _ ( 3Xj eXH i q 6XG rX2X9 7X..X.K.M.g.g.g.h.j.d.N.$.&.#.#.#.&.&.g.g.g.g.g.z.c.z.z.",
"z.g.&.g.g.g.g.&.&.g.g.g.g.g.k.c.x.x.g.;.9.=XAXaXNXHXNXJ y H 2X9 a VX:X,X6Xp jX{ M.d.g.g.g.g.s.f.l.=.&.&.&.&.l.z.c.z.j.g.z.c.c.c.",
"c.z.g.g.h.k.h.g.#.#.#.#.#.&.g.k.x.a.a.z.q.=XAXNXBXmX1XC 5Xa >X>XH 5X:X,X,Xu ..&X0.$.g.g.g.a.s.s.a.&.+.+.+.+.&.g.D.z.g.g.g.z.c.c.",
"c.c.h.g.h.c.k.g.+.+.+.+.@.&.g.g.f.f.s.j.=.w.[.9XeXeXC y VXVXt p G tX6X:X,X>Xp bXr.,.l.g.g.a.s.s.g.&.#.+.O.+.#.&.z.g.&.&.&.g.z.z.",
"z.k.z.g.g.k.c.z.#.@.O.+.#.g.g.g.p.Z.a.p.g.q.W.M k 0 o G KXLXKX .o 9X9 <XMXt 5Xb !.q.1.-.h.g.s.b.c.l.&.+.O.+.#.#.g.&.&.&.g.g.g.g.",
"g.z.h.&.&.z.c.z.g.#.@.#.g.k.k.l.d.Z.a.j.n.$.q.Q.gXrXJ tXLXKXLXKXPXrXhXLXLXi <XJ Q.e.y.t.1.z.j.j.x.l.#.O.o.o.O.+.#.#.#.g.g.g.g.&.",
"z.g.g.#.#.#.&.&.g.h.h.g.g.k.k.j.l.l.x.j.j.g.l.0.!.qXrXGXCXIXIXPXPXhXcXDXLXl <XG [.}.{.}.~.9.V.Z.l.&.#.+.O.+.+.#.g.g.z.z.g.g.g.g.",
"g.g.g.#.&.&.g.g.h.k.k.g.g.z.z.g.l.l.k.j.j.j.a.a.H.!.SXVXIXIXJ ZXvXwXqXcXhXG C 9XwX'.Y.8 7 -X:.C.l.l.g.g.g.g.g.g.j.z.c.k.h.g.g.h.",
"g.g.g.&.&.g.g.h.k.k.k.g.g.z.z.g.z.z.B.l.g.j.j.g.C.e.bXVXIXeXJ PXUXyXgXFXJ tX9X`.9X(.iX$ g `.e.=.#.&.g.z.z.g.g.&.g.z.k.k.h.g.h.h.",
"g.g.g.g.g.g.z.k.z.z.z.g.g.g.g.g.g.g.=.l.g.j.j.j.#.J.cXPXCX1XGXUXUXyXvXUX5XmXcXwX(.wXwXiXX 1 +X=.#.&.g.h.g.g.&.#.g.g.g.g.g.g.g.g.",
"g.g.g.g.g.g.z.k.k.z.g.g.g.&.#.&.#.#.#.#.g.g.j.j.=.8.bXhX1XeXJXPXAXvXyXPXGXJ ).kXiX/.Y.'.M = -Xl.z.z.z.z.z.z.g.g.&.&.g.g.g.g.g.g.",
"g.g.g.g.g.g.g.z.c.z.g.g.&.@.+.@.@.@.@.#.a.g.j.j.H.#XfX9X1XJXJXIXPXvXvXPXIX .).^.XX].; R.Y.R.q.C.z.z.z.z.z.h.h.h.g.g.g.g.h.h.h.g.",
"g.g.g.g.g.g.g.g.k.g.g.g.g.#.#.g.a.p.#.#.a.g.l.V.e.zXfXDXZXIXIXJXDXwXgXFXSXcXbXR.~.u.u.2.U.L.%.l.&.g.g.g.g.g.g.g.g.g.g.h.k.k.k.h.",
"h.g.g.g.g.g.&.#.g.#.#.g.g.g.g.c.g.g.a.a.a.d.N.H.+X%XgXDXVXVXCXGXgXqXqXbXDXDX%X~.9.4.3.A.A.z.#.#.#.#.g.g.z.j.g.g.g.g.g.g.k.k.k.h.",
"z.g.g.g.g.a.#.#.@.#.&.a.#.#.g.j.z.z.z.g.a.p.a.N.H.$XyXGXPXPXIXGXwXn /.vXUXDX-X:.<.B.c.h.*.#.g.l.c.c.k.j.c.c.j.g.g.a.g.g.z.j.g.g.",
"g.g.g.g.a.a.#.#.#.a.g.g.a.a.g.j.-.z.l.g.a.a.a.l.o.^.g A z z K Z d . 5 c Z v E.%.$.l.k.g.a.#.&.l.g.g.g.g.j.j.g.a.g.g.g.g.j.j.g.g.",
"a.g.g.g.g.g.g.g.g.g.g.g.g.g.g.j.z.z.l.g.a.a.a.l.q.kXd B d g Z Z d < N g Z v %XI.,.l.g.g.g.g.&.&.a.a.g.g.j.j.g.g.g.g.g.g.g.g.g.a.",
"a.g.g.g.g.g.j.j.g.g.g.g.g.g.g.g.h.h.l.g.a.a.g.l.8.Y.s V z z k k $ o , s D f Q.<.N.g.g.g.j.j.g.#.#.#.#.#.g.g.j.j.j.g.g.g.g.g.g.a.",
"a.g.j.j.g.j.k.c.j.j.j.j.j.g.g.g.g.h.j.l.a.a.g.l.#X1 z Z F g f f , X d z A y !.J.V.l.g.j.k.c.l.#.@.+.O.O.+.@.g.g.j.j.j.g.g.g.a.g.",
"g.g.j.j.g.g.j.c.c.c.j.j.k.k.j.g.g.h.j.l.d.a.g.z.kX- F h f < f J X X k h B s [ 8.V.j.j.k.c.c.l.g.#.@.@.+.+.#.g.j.j.j.j.g.g.a.g.g.",
"g.g.k.j.g.g.g.j.j.j.g.g.j.j.j.g.g.g.j.l.d.g.g.B.[.s Z h f < n qXv . s V B z 6 r.V.g.j.k.c.j.l.a.a.a.g.a.a.a.g.j.g.j.j.g.a.a.g.g.",
"a.g.k.j.a.#.g.g.g.a.#.a.g.g.g.#.g.g.j.l.d.l.g.q.Y.z Z F z < 5 `.`., w D B k > -X<.j.h.k.j.j.g.a.#.a.g.g.g.a.a.g.g.g.j.g.a.a.g.j.",
"g.g.a.g.g.g.g.#.a.g.g.g.g.g.a.a.g.a.g.x.d.C.D.8.N w Z Z s c 7 W.vX. s A D s 5 %X<.&.g.g.j.j.g.a.g.g.g.g.g.g.g.g.g.g.g.g.g.g.g.j.",
"j.g.g.g.g.g.g.g.a.a.g.g.g.g.a.a.g.j.g.a.N.$.,.+X< V Z V k c Q.E._.> s V A k c _.q.z.g.g.a.g.l.k.g.g.g.g.j.g.g.g.j.g.g.g.g.g.g.j.",
"j.j.g.a.#.a.g.j.a.g.g.g.g.g.g.g.a.n.a.p.Z.,.q.=X: F V V z < $Xe.6.m k B j k g Y.e.B.h.g.a.a.x.x.a.g.g.g.g.g.g.g.g.g.g.a.a.g.g.g.",
"g.g.g.g.#.#.a.g.g.g.g.g.g.g.g.g.j.n.j.a.x.H.E.[.g j h V Z > OX<.e.}.g h h k f m e.,.g.g.j.x.s.a.g.g.g.g.g.g.g.g.#.#.#.#.#.#.a.g.",
"g.g.j.j.g.#.a.g.g.g.g.j.j.j.j.g.S.a.j.j.@.H.W.n n d V B Z m 0.#.L.$Xg h k k k n #XV.&.#.l.x.s.a.g.g.g.g.g.g.a.a.#.#.#.#.#.a.g.g.",
"g.j.k.j.g.g.g.a.g.g.g.g.j.j.j.j.c.O.j.j.O.P._., g d D B B qXH.a.-.~.c h F z h c %XL.=.#.a.x.j.s.g.g.g.g.g.g.a.#.a.a.a.a.g.g.j.k.",
"j.g.g.g.g.g.a.#.#.a.a.g.g.g.g.g.a.@.j.j.a.P.`.d g g D S B fXL.a.g.e.M k F z V g #XL.B.&.a.a.j.j.a.g.g.g.g.g.g.g.g.g.g.g.g.g.g.j.",
"j.g.#.@.@.#.#.@.@.#.#.#.a.a.a.a.a.j.j.g.l.r.| z g d j D z [.,.g.A.P./.h Z k V g R.q.B.z.g.p.s.s.#.#.a.g.g.g.g.g.j.j.g.g.a.a.g.g.",
"#.#.a.#.@.@.@.@.#.#.#.a.g.j.j.j.j.b.j.C.J.-X5 v k l k s m R.1.A.A.:.wXA A V z 1 ; y.,.c.a.b.s.v.n.g.g.j.j.g.g.j.j.j.j.j.g.g.g.g.",
"#.a.g.#.#.@.@.#.#.#.a.g.g.j.c.c.s.j.g.V.~.}.> f l C k c [ y.1.*.A.<.gXA A V g 2 6 ~.,.g.a.s.v.b.j.g.a.g.j.g.g.g.g.g.g.g.g.g.a.a.",
"#.g.g.g.a.#.a.g.#.#.#.#.g.g.l.k.f.x.l.H.}./.g d Z V k 5 ~.P.V.&.h.L.fXl Z l z < 5 %Xq.l.N.d.f.s.g.a.#.g.g.g.g.g.a.g.g.g.g.g.a.a.",
"a.g.g.g.g.g.g.j.#.#.#.#.g.l.l.x.d.C.l.y.'.n d e j w s - $X,.F.c.&.L.fXs z l F f > %Xe.$.N.@.M.@.g.a.#.a.g.g.g.g.a.a.g.g.g.g.g.g.",
"g.g.g.j.g.g.j.c.g.g.g.g.g.l.x.C.d.d.&.9.Y.$ # $ # $ X 5 +Xd.x.x.*.L._.< s s Z s   W.8.+.N.@.N.$.g.g.a.a.g.j.j.g.g.g.g.g.g.g.g.g.",
"g.j.j.j.j.j.j.c.a.#.#.#.#.#.l.l.p.a.h.5.Y.@ 3 & & & o `.e.Z.p.x.x.H.W.m : X e $ $ Y.y.-.D.&.l.a.a.g.g.a.g.k.c.j.g.g.g.j.j.g.g.g.",
"j.j.h.k.j.j.j.c.#.@.@.+.+.+.$.a.a.g.A.5.R Y ! ~ ! x @ {.y.C.s.s.x.H.E.'.$ $ # & 4 R *X4.A.h.j.a.a.g.g.a.g.c.c.j.j.j.j.j.j.g.g.g.",
"j.j.k.h.j.j.j.c.g.g.#.@.$.#.l.l.j.h.4.i.E L Y ~ ~ % * ^.P.] m.p.a.,.~.kX@ @ & ! T E |.u.4.z.j.s.#.g.g.#.g.c.c.j.j.j.j.j.g.g.g.g.",
"j.g.g.h.c.g.a.#.l.a.#.l.l.#.$.l.z.4.@X|.U Y P P P % XX7.9.>.x.p.s.C.~.kX3 Q ~ ~ T L / XXu.I.@.x.a.a.g.g.g.g.#.#.@.#.#.#.#.#.a.g.",
"c.j.g.g.g.a.#.#.#.@.@.#.#.@.@.$.>.y.; R Y T ~ ~ P 3 XXu.y.<.j.p.b.k.9.XXY P I L L L Y / R ~.P.O.a.g.a.a.g.a.a.#.#.#.#.a.a.g.g.g.",
"m.j.a.a.a.#.#.#.@.@.@.#.#.+.+.>.~.=X4 @ 3 % Q ! P Y |.u.y.<.j.s.p.j.t.^./ Y ~ T W T ~ & @ 7 $XP.=.a.a.a.#.a.a.a.a.#.@.#.g.g.g.#.",
"k.g.#.a.a.#.@.#.@.@.#.#.#.@.@.>.[ [.N x Y % ! _ ^ R u.4.<.>.j.b.v.n.D.u.T.Y T T E T ! x x 2 W.r.$.a.a.#.#.#.a.g.a.#.@.@.g.g.a.#.",
"g.#.#.g.g.a.#.a.#.#.#.#.#.#.@.%.+X{.wX^ R R ^ (.].y.L.;.,.$.j.s.b.j.g.4.;XXX;XoX|.|.` ` /./.$XP.$.a.a.#.#.#.a.g.g.a.#.#.g.j.g.#.",
"g.#.#.g.j.g.g.g.#.g.g.#.#.a.#.$.:.w.zXxXxXxXlX=X~.t.z.a.N.N.x.s.j.j.a.#.@Xw.~.6.*X;XlXnXkX-X@X2.#.a.g.a.#.#.a.g.k.j.g.g.k.c.j.g.",
"k.g.#.g.g.g.g.l.j.c.j.g.a.g.j.g.D.-.1.2.9.2.P.t.>.d.p.s.x.x.f.l.+.g.j.j.N.:.J.H.o.L.+X+X1.L.3.A.&.g.j.j.g.g.g.j.k.j.j.j.k.c.j.j.",
"Z.l.a.a.g.g.g.c.c.S.c.g.g.c.c.k.&.F.*.3.I.o.V.%.a.m.p.v.v.f.d.N.V.k.s.s.p.] G.] Z.@.H.H.F.A.;.A.*.j.c.c.j.g.j.c.g.j.j.j.g.g.g.j."
};
