/* XPM */
static char *a32938bde3614754df8f3cbf173310c9zM6xUpbFSkbcydwh[] = {
/* columns rows colors chars-per-pixel */
"64 64 255 2 ",
"   c #0D3900",
".  c #143C01",
"X  c #1C3D02",
"o  c #1C3C0C",
"O  c #163808",
"+  c #1D3C13",
"@  c #1C3B1A",
"#  c #102D06",
"$  c #2B3500",
"%  c #233C02",
"&  c #233C0C",
"*  c #2B3C0C",
"=  c #283903",
"-  c #353C09",
";  c #223D14",
":  c #223D1A",
">  c #2A3B16",
",  c #343E15",
"<  c #332A1D",
"1  c #1B3B24",
"2  c #283E22",
"3  c #383829",
"4  c #3A2F29",
"5  c #483125",
"6  c #0E4400",
"7  c #144301",
"8  c #1B4401",
"9  c #154A01",
"0  c #1C4A01",
"q  c #1D420C",
"w  c #1B460A",
"e  c #1E5201",
"r  c #195700",
"t  c #1E4214",
"y  c #1C4617",
"u  c #234401",
"i  c #2B4201",
"p  c #234B01",
"a  c #2B4C00",
"s  c #22420C",
"d  c #2B440C",
"f  c #234B0B",
"g  c #2C4A0B",
"h  c #334505",
"j  c #245401",
"k  c #2B5400",
"l  c #2C5B01",
"z  c #275809",
"x  c #335C00",
"c  c #375603",
"v  c #234313",
"b  c #254A13",
"n  c #24441B",
"m  c #294818",
"M  c #374719",
"N  c #2A5816",
"B  c #355616",
"V  c #2A6609",
"C  c #346301",
"Z  c #3B6400",
"A  c #3B6A02",
"S  c #36680A",
"D  c #397508",
"F  c #2C6316",
"G  c #356617",
"H  c #397A19",
"J  c #274725",
"K  c #384724",
"L  c #31522A",
"P  c #386623",
"I  c #3D7724",
"U  c #1F4423",
"Y  c #554A06",
"T  c #485608",
"R  c #585309",
"E  c #464C1A",
"W  c #544D15",
"Q  c #485419",
"!  c #545519",
"~  c #464B0A",
"^  c #614D07",
"/  c #645A0C",
"(  c #625515",
")  c #705411",
"_  c #426B01",
"`  c #426507",
"'  c #4A7501",
"]  c #477905",
"[  c #486D15",
"{  c #477A19",
"}  c #577D0D",
"|  c #74651C",
" . c #474A25",
".. c #544C24",
"X. c #445224",
"o. c #4B5528",
"O. c #565629",
"+. c #555235",
"@. c #664C29",
"#. c #655534",
"$. c #426D25",
"%. c #437D2B",
"&. c #477926",
"*. c #577E2B",
"=. c #4A7736",
"-. c #506F33",
";. c #676626",
":. c #756832",
">. c #716A2E",
",. c #787545",
"<. c #577C46",
"1. c #8D741B",
"2. c #89752B",
"3. c #977B2A",
"4. c #927936",
"5. c #897331",
"6. c #887A49",
"7. c #967748",
"8. c #3A860B",
"9. c #3D8514",
"0. c #3E861A",
"q. c #3C8817",
"w. c #398C09",
"e. c #3E8423",
"r. c #488608",
"t. c #538C00",
"y. c #5B8D01",
"u. c #558605",
"i. c #499309",
"p. c #5B9201",
"a. c #428515",
"s. c #43851D",
"d. c #4A841B",
"f. c #438A1C",
"g. c #488A17",
"h. c #568717",
"j. c #4A9518",
"k. c #549717",
"l. c #668D04",
"z. c #639302",
"x. c #699A05",
"c. c #699316",
"v. c #5CA51A",
"b. c #68A604",
"n. c #78A805",
"m. c #7BB508",
"M. c #79A716",
"N. c #7DB716",
"B. c #66AB16",
"V. c #428423",
"C. c #4A8324",
"Z. c #448A22",
"A. c #44832B",
"S. c #49882A",
"D. c #54842A",
"F. c #4D8335",
"G. c #568736",
"H. c #50982C",
"J. c #668A28",
"K. c #689725",
"L. c #6B9533",
"P. c #729929",
"I. c #5CA52A",
"U. c #5DA730",
"Y. c #64AA23",
"T. c #77A629",
"R. c #6AB629",
"E. c #78B82A",
"W. c #68A938",
"Q. c #79A836",
"!. c #6BB537",
"~. c #78BA37",
"^. c #7AC51B",
"/. c #7BC628",
"(. c #7CC736",
"). c #578346",
"_. c #7ABA42",
"`. c #72B04B",
"'. c #6A9E49",
"]. c #7CC648",
"[. c #7AC455",
"{. c #84B502",
"}. c #85BA01",
"|. c #8CBD01",
" X c #8CBD0B",
".X c #85B709",
"XX c #92BD02",
"oX c #92BE0C",
"OX c #97BC04",
"+X c #83B414",
"@X c #8CBC14",
"#X c #8CBC1C",
"$X c #85B719",
"%X c #92BE13",
"&X c #92BE1B",
"*X c #97BB17",
"=X c #81AE0D",
"-X c #9B832B",
";X c #988537",
":X c #8A8533",
">X c #A2852E",
",X c #89AD29",
"<X c #8CBB24",
"1X c #8CBC2C",
"2X c #86B629",
"3X c #93BC24",
"4X c #92BC2C",
"5X c #97BA28",
"6X c #89B737",
"7X c #93BC37",
"8X c #84AE38",
"9X c #93811F",
"0X c #8EC201",
"qX c #8ECA01",
"wX c #8EC20B",
"eX c #88C406",
"rX c #93C402",
"tX c #99C503",
"yX c #94CA02",
"uX c #99CB03",
"iX c #94C30A",
"pX c #9AC50B",
"aX c #95CA0B",
"sX c #9BCB0B",
"dX c #9BD305",
"fX c #8CC215",
"gX c #8DC21B",
"hX c #89C616",
"jX c #93C413",
"kX c #9BC414",
"lX c #95CA14",
"zX c #9BCB14",
"xX c #93C41A",
"cX c #99CA1B",
"vX c #9DD115",
"bX c #A5D60A",
"nX c #A1CB15",
"mX c #A2D317",
"MX c #88C629",
"NX c #95C42A",
"BX c #98C727",
"VX c #84C938",
"CX c #98C635",
"ZX c #8DD433",
"AX c #A3CF27",
"SX c #97854A",
"DX c #89864D",
"FX c #88BB48",
"GX c #87B95D",
"HX c #90B847",
"JX c #88C747",
"KX c #8AC554",
"LX c #8DCA51",
"PX c #91C461",
"IX c #A1D147",
/* pixels */
"@X@XxXjXwX0XrXyXrXyXyXyXyXyXyXyXyXyXqXqX0X0X0X0XwX0XrXrXrXyXuXyXuXyXrXrXpXkX*X%X*X*XkXiXyXuXeXdXqX0XvXcXBXBX{.uXrXyXiXoXpXpXtXrX",
"@XjXjXiXiX0X0XrXrXyXyXyXyXyXyXyXyXyXqX0X0X0X0XrXrXrXrXrXrXyXyXyXyXrX0XrXrXpXpXoXoXoXnXiXmXzX0XyXdXyXcX&X3XBXkXdX|.|.XX|.XXOXtXtX",
"rXiXuXyXyXrX0X0XrXrXrXiXiXjXjXjXiXiX0X0X0X0XrXrXrXrXrXrXrXrXrXrX0X0X|.|.|.rXrXtXtXXXkXn.NX<X1XCXNXNXCXCX4XNXAX0XrXrXrXiXXX|.XXtX",
"rXrXyXyXyXyXrX0XrXrXrXiXiX%X&X&X%XiXiXiXrXrXrXrXyXrXrXrXrXrXrXrXzXzXaXuXuXyXyXrXrXXX%XA ' A [ A _ _ Z _ A y.AXwX|.|.rXtXtXXXXXpX",
"rXrXyXyXuXuXyXyXrXrXXXoXoX%X%XoXoXrXXXrXrXiXrXrXrXyXrXrX0X0X0XrXjXiXiXuXyXyXrX|.{. X<Xp p 8 f   8 0 8 p 7 A <X@X X|.|.rXrXrXiXkX",
"yXrXrXyXyXtXiXiXoXoXoXoX|.|.XXXXrXrXrXrXrXiXpXpXiXiXiXrX|.|.0X0X}.|.rXaXsXkXzXcX&XCX6Xp 8 8 b y y n p p j ' 2XNXBXzXyXrX|.rXiXjX",
"uXrXrXrXiXjX*X*X%X%XoX|.|.0X0XrXyXyXyXyXtXtXpXkXjX%X%X X X|.0X0XrXsXzXjX.XM.M.8X8XQ.L.k 8 8 8 f y + 0 0 j ' c.6XM.#XzXyX0XyXiXoX",
"uXtXXXXXoX%X*X&X*X%XoX|.|.0X0XrXyXyXyXyXtXtXpXzXiXoXoXoX X|.0X0X0XyX|.x.A 0 8 a 8 0 B $.D.D.H G.=.).GXKXFXK.j 0 k z.fXiXrXsXsXiX",
"OXnXpXXXoXoXoXkXoX.XjXlX|.|.aX|.rXiXXXpXnXtXXXtXrXuXuX0X|.|.|.{.}. XxXx.j   0 8 O . b $.D.d.r.a.F.C.FXJX6XK.j 0 8 T.1XcXiXuX|.sX",
"oXoXXX{.|.|.{.}.|.wXjX@X$XNXCX4X1X4X3X&X%XiXuXyX0X0X|.|.|.rX0X|.@X#X1Xc.l 8 f q y w N I C.r.r.i.r.r.VXVXVXK.j 8 0 L.6XNX XuX0XuX",
"kXoX|.|.|.|.}.}.m.{.x.u.u.h.D.G.*.*.J.u.u.n.rX}.dXyX0XrXyXrX|..Xl.h.h.{ S G P N P F G &.d.a.k.Y.Y.B.MXMX/.E.d.D.&.D.h.y.y.|.uXyX",
"kXiXiXtXrX0XyXyXdXlXz.l p 0 . O O . p p k x.mXyX0X}.}.0XyXrXrX&Xk p p z $.=.F.%.%.I V.S.g.g.I.~.ZX/.MX/./.VX_.PXGX{ 8 0 C @XvX0X",
"XX|.uXuX0X0XuXyXwX+X] 7 . 8 w n J q w 8 0 u.MXm.zXaXuXuXsXtXyX3Xa X X N =.G.F.S.S.s.s.f.a.a.I.]./.^././.VXVXVXKXPXS . 0 Z NXzX{.",
"|.|.uXsX|.aXlXn.<XE.h.Z j 0 0 0 z 9 9 e C K.FX6X2X$X+X.X XiXpX&Xc n q N %.&.H H Z.q.f.f.9.9.U.JX/././.(.VXVXVX6XFXS 0 p x 2XjX0X",
"rXrXdXzX@XCX2X' C Z } K.W.Q._.~.~.k.] D S F z z a k x Z l.%XnXBXa v O w N z r H Z.0.f.f.9.9.U.JXJXVX(.(.(.VXZXVXJXA 0 8 k ,X+XlX",
"yXrXsXlX@XCXT.8 7 0 h.KXLXJXVXE.VXY.i.g.C.F 7 w s u u p } 3XAX4Xa v . . 0 6 6 H Z.0.0.f.9.9.U.].(.(.(.(.VX/.MXMXJXS 0 u A 7X=XwX",
"|.aXuXmXcXMXT.e 6 9 k.~.(.VX(.(.(.R.i.g.s.r 9 8 . 0 8 p h.6X7XHXg o v q w 0 6 H S.V.s.f.9.f.U.].].~.(./.^.MX/.JXGXP w . x 7X%X|.",
"XXpX|.n.z.p.h.{ D D Y.~.(.VXR.!.R.I.w.f.f.V V N B z u a [ J.J.J.g o v q w w 9 &.A.V.Z.s.0.f.H.!.!.!.VXZXMX/.R.!.'.B f 8 c 4X%XpX",
"rXiX@X' k l A `.KX_.VX(.VXE.i.w.w.j.8.q.S.I %.=.P f . X u a k u s & v w 8 w 0 I %.A.V.s.0.9.f.j.8.i.R.(./.R.g.g.C.j 0 a _ NXkXpX",
"yXiX4XZ 8 u p KXFXJXVXVXLX(.i.w.8.w.8.0.S.A.G.).=.b 8 f X X u X s v v o 8 7 9 G F.S.A.V.Z.f.q.8.8.i.!.JX].!.f.s.{ j . 8 _ BXkXpX",
"uXiX7X` u f 8 PX~.VX~.~.].R.k.j.w.j.q.0.A.I =.=.-.v v m s 8 g d o m q q b f b F %.%.V.V.S.Z.f.q.g.j._.[.[.`.S.V.{ A j p _ %XkXnX",
"uXiX7X` d b 0 PXJXJXE.v.v.k.v.I.I.U.f.s.A.F N N J o O + o O o s o m o b P P P F z z V H S.V.Z.Z.8.w.H.H.H.A.V V j h.p.x.x.%XoXpX",
"uXkX4X` u u k GXFX~.k.i.8.j.].].].!.f.Z.A.N w q n n + : n + o m o m O N =.=.=.N 9 6 r H A.I H Z.q.8.Z.Z.e.H r 9 6 K.6XCX3XnXOXXX",
"rXkX3X' 8 8 x GXPXJXY.j.D r.]._.LX!.9.s.A.z w O o n : + n + O v o m O B <.).=.b 0 7 z A.G.e.I S.0.8.e.e.e.H r 6 r L.Q.6X#XkXOXOX",
"nXiX X_ l Z x '.`.W.H.g.r.j.W.]._.W.a.Z.C.z 8 7 q t ; ; ; ; ; t v o v B $.-.$.B 8 7 z I %.H I S.e.0.f.q.H V r r S { FX8Xx.AXOXXX",
"{.iXmXjX+XT.K.l j z D a.a.8.9.f.j.j.D s.C.z 0 w q t ; ; ; ; v t q o q v m m d s f 8 0 z e 0 F %.e.V.Z.Z.g.g.s.{ { l x k x *XOXtX",
"iXiX{.iX{.1XKX7   9 V a.g.g.Z.Z.9.g.a.S.C.z 8 8 q q t v q q q q v v v & X X % X s % X 8 . 6 F F.A.V.s.s.g.g.C.C.&.k 8 8 Z BXpXOX",
"iXpX|.rX.X1XFX7 0 z V H a.a.V.S.f.H.{ C.&.z 8 8 q q t q s q q q s v v & & & d d * u d s w w G F.F.A.C.C.d.d.&.&.*.S p u _ *XpXOX",
"|.iXjXn.z.c.[ S z G H s.f.0.H H H { V F G f w w q q s s q q q s o o & d M M M M M M M g s w b N B F G G G G G G S { } u.l.kXXXXX",
"rXiX@XZ p a   G.&.{ d.S.S.Z.e.A.%.H 9 9 f w w q q t v s q q q & & & & M X.o.X.E o.X.M d & 8 s 0 8 8 8 w q w 8 8 p K.6XCXkXmXtXtX",
"rXiXCX_ u f   G.D.d.a.9.H H e.A.F.I 9 7 w q q o t ; ; v t q q s n * , M X.O.o.o.o.o.M d & s b s p p s n 1 @ + 8 a K.$XoX{.tXtXbX",
"uXjX7X` X n s =.D.d.d.C.S.A.%.%.=.$.w q v + v v & * * ; ; & s s * * , M  .o.o.o.Q o.Q h u u 0 8 u u 8 X X 8 u p 8 x. XmXsXbXrXtX",
"rXwX4X_ g o O v w p a j p f w u a h d ; n K X.Q Q W E E M d u % E  . .o. .X.o.d % a i HX,XM.+X@X&X#X$X#X<X<X$X+X@X X0XrXuXuXyXrX",
"0XiX1XZ u X + n n v 8 X X o o & $ = & ; : K Q Q ~ W O...E * & i E ....o.o.X.X.g u k k 7X3X XXXrXrXrXrXrXrXrXrX0XrXrXrXrXrXuXrXrX",
"0XjX#XA 0 8 u o m v + + v n n v d d m 2 J L X.Q Q ! O...K > X X o.....o.X.X.B B X k k <XxXiXrXrXrXrXrXrXuXuXuXyXyXrXrXrXyXyXrX0X",
"}.wXxXu.' ] [ 8 o + + : n : + o & > @ @ 1 J B B Q Q  . .K n & % Q ! O. .K M M [ _ ' ' xXjXiXiX|.|.|.|.|.0XrXyXrXrXyXrXrXrXrXrX0X",
"|.iXcX.X#X1XQ.k u v J J J : : n + : 1 1 1 n d i i M o.+.K 2 n v E E O.K > * g J.6X$Xm.mXsXsXpX|.|.}.{.{.{.|.rXrXuXrXrXrXrXrX0XrX",
"0XiXvXaXAXBX2Xa X X X o + + n m ; J J J J t X . % c O.+.2 O O % E E O.M > & u L.IXBXaXdXyXuXsXrX|.|.}.{.{.|.rXuXrXrXrXrXrX0XrXrX",
"rXrXsXaXiX.X+Xx p u u u g d & O o + @ @ o f a a c T o.X.M , h h Q E o.M > ; X P.MXeXdXyX0XuXsXiX|.0X0X|.|.|.rXrXyXrXrXrX0X0XrXyX",
"0X0XuXaX0X{.BXz.x.c.c.P.L.*.B % s s s s B { J.P.} T = - o.>.>.;.! E o.M K m X K.MXqXbXdXyXuXpX X|.rXyXyXrX0XrXrXrXyXrXrX0X0XrXrX",
"yX0X0XrXjXjXwX XlX.XBX<X7X8Xx p u u u % a J.HX7X,Xa = $ ;.DX:X:XT O.X.K > & u T.gXeXqXqXqX0XiXcXiXrXyXyXyXyXrXrXrXrXrXrXrXrXyXuX",
"yXyXrXiXjXjXjXiXyX}.dX0X@XM.k . a p i % a l.4X5X,Xc i $ ;.:X:X;XR ! E K > = u P.NXqXqXqXqX0X|.iXrXrXrXyXrXyXyXyXrXyXrXrXrXrXyXrX",
"yXyXiX X@X@XiXuX0X|.dXrXiX.X' _ k k c k c l.3X5X,Xc i $ ;.:X9X-XR ! E X., % u K.NXlXqXqXqXrXiXwXrXrXrXyXrXyXyXyXyXrXrX0X0XrXrXrX",
"rXyXrXoX X X|.yXrX0XyXrXuXzX=X$X4XCX7X4X,X5XBXBX,Xa i $ ;.:X1.1./ ! E Q * $ i P.1XgXeXeXqXaXlXiXiXrXrXrXrXrXrXrX|.|.|.|.|.|.0XrX",
"rXyXiXiXoX|.XXrXuXuXyX0XyXsX%XBXBXCXCXCXNX3X+X$XT.k i $ ;.SX-X-XR W W Q $ % a P.7XMXgXeXwXaXaXwXiXyXyXrXrXrX0X|.|.|.|.|.|.0XrXrX",
"rXtXaXpXiXrXrXrXrXuXyXrXuXrXrXzX+X+X+X$XNX3X<XCXQ.k d = O.4.-X>X^ W ! ! $ - c J.HX6X<XgX@X XwXaXiXrXyXrXrXrX|.|.0X0X0X0XrXrXuXuX",
"kXiXiXrXrXrXrX|.|.rXXXrXsXiXiXiXhXN.b.x.M.y.] u.d.7 m ; o.>.| 1.| :.>.;.h ~ c [ h.h.l.M.n.b.m.aX0XrXrXrXrXrXrXrXyXrXrXrXrXrXyXrX",
"kXoX|.|.|.|.|.|.|.pX|.|.iX|.|.wX^.B.t.u.u.C 7 p j # m :  .! Y R SX4.4.:.Y ! h c u 8 l ] t.t.b.hX|.|.0XrXrXrXyXyXuXyXyXrXrXrXrXrX",
" X X X|.|.|.|.|.rX|.rX}.iXcXgXZX(.I.r.h.{ k a i i d & & M E E ! 2.;X;X2.( Y ..- * o z { g.r.b.MXZXhXlXaX0XyX0XyXuXtXtXtXiXrXrXrX",
"|.0XiX X|.|.|.|.rX0XrX|.aXcXN.2XJXW.s.{ G g d $ $ - - h E Q X.! 2.-X3.1.) ( @.- * o b P H 8.v.VXE.m.hXaXqXyX0XyXrXyXtXtXiXiXXXXX",
"|.0XiXrXXX|.rXrX|.|.0X|.jXfXx.x.k.H e j B M O.O.#.,.,.:.;.! ~ R -X>X-X3.3.5.4.O.o.B B N e e A i.x.p.+XfXqXyX0XrXrXrXrXrXrXXXXXXX",
"0XrXiXiXiXrXyXtXrX|.0X|.xX@Xp.u.] D 8 X d E #.+.#.6.SX4.| / Y R 3.-X3.>X3.;X;X| ! Q B 0 . 9 V ] u.t.N.fXeXyX0XyXrXrXrXrXrXrXrXrX",
"rXrXrXiXrXrXtXuXyX0XrX|.xX#Xp.u.h.{ a % ,  .#...@.7.7.4.| / ^ ^ 3.;X3.-X3.-X-X/ T Q B u . f P D.r.t.N.fXeXuXyXuXrXrXrXiXiXrXyXrX",
"rXyXuXaXpXiXpXsXrX|.|.{.@X$Xy.u.] [ u = ,  .+...#.7.7.5.1.1.) ) 2.2.2.3.-X;X;X/ T Q B s . w B &.u.y.+XfX0XsXuXuXyXyXrXiXrXyXrXrX",
"yXyXuXuXtXpXpXsXXX|.|.{.+XN.t.u.d.[ u & > < 4 < 5 @.@.) 2.4.3.3.^ ( ^ | 2.;X4.W $ = s q o w P *.u.y.+XfXwXvXsXuXtXtXpXiXrXrXrXrX",
"yXyXuXuXtXiXpXaXrX0XiX.X#X$Xp.u.a.S 7 o > > 3 4 5 #.@.@.:.7.;X4.( ! W ;.6.SXDXE * & v b w 8 B &.r.y.+XfXwXmXsXrXtXtXpXiXrXrXrX0X",
"yXyXyXuXaXrXXXXXaX|.|.jXgXN.z.t.r.D 6 7 n : 2 3 3 +.+.#.:.6.DXDXO.Q Q >.6.DX,.+.> @ t y 9 0 C r.r.z.m.fXiX|.|.|.|.|.|.|.|.0X0X0X",
"dXyXrXyXrXXX|.XXrX|.|.wXfX+XM.B.~.U.H G P y + @ > , M , E ! O.Q h i - M o.O. .K 2 @ n P G D k.T.b.m.@XjXiX|.|.|.|.|.|.|.0X0X0X0X",
"dXyX0X0XXX|.|.|.|.}.{.|. X+X+XN.R.v.8.s.C.N f b & d d = % i i % u u i i = * , n t q N I d.r.B.MX#XgXfXiX0X|.XXrXXX|.|.|.0X0X0XqX",
"yXrX|.|.XX|.|.|.|.|.|.|.}..X+XN.^.B.i.k.g.j 0 0 u p p u u u u 8 p p p u % % = a p 7 z s.k.t.b.gXgXfX X|.|.|.rXrXrX|.}.|.0XqXqXeX",
"rX|.|.rXiXXXXXXX|.|.0X|.}.}.m.m.m.b.t.p.t.C l C x C C x x Z Z C C C Z x c c c c Z l A r.p.t.b. X X X}.}.|.|.rXrXyXXX|.|.iXyX0XqX",
"0X|.|.rXiXiXXXrX|.0XrX0X}.0XeX}.eXaX.XhXBX$XMXNX#X#X&X<X3X4X4X1X1X1X1X3X5X5X5X3X4X<XMXCXBXfXxXAX|.0XrX0X0X0XrXrXuXpXiXiXaXuXyXqX",
"uX0X|.iXiXiXiXtXyXyXyX0X0XyXqX0X0XdX0X0XiX|.oXXXrXXXrXrXiXwX@XgXgX@X@XoXpXtXXXXXiXlXcXcXxX X.X|.0XiXuXyXrXrXrXyXuXaXiXaXaXuXyXyX",
"sXiX0X|.iXiXiXaXbXdXuXyXyXdXdXyXrXbXuXtXtXXXtXXXrXrXrXyXrXrXiXjXhXfXiXrXtXtXtXrX}.0XsXvXzXcXzXkX|.iXsXyXyXrXyXuXyXiXiXiXiXqXqXqX"
};
