/* XPM */
static char *_db5768c6ddb49eba879b9d833eef063OPmuag37RSJOiKER[] = {
/* columns rows colors chars-per-pixel */
"64 64 252 2 ",
"   c #82AF00",
".  c #85B200",
"X  c #86B300",
"o  c #82B400",
"O  c #83B500",
"+  c #86B400",
"@  c #87B400",
"#  c #87B500",
"$  c #84B600",
"%  c #85B600",
"&  c #85B700",
"*  c #87B600",
"=  c #86B700",
"-  c #88B500",
";  c #88B600",
":  c #89B600",
">  c #88B700",
",  c #89B700",
"<  c #8AB600",
"1  c #8AB700",
"2  c #8BB700",
"3  c #86B800",
"4  c #87B800",
"5  c #87B900",
"6  c #88B800",
"7  c #89B800",
"8  c #88B900",
"9  c #8AB800",
"0  c #8BB800",
"q  c #8BB900",
"w  c #88BA00",
"e  c #89BA00",
"r  c #89BB00",
"t  c #8ABA00",
"y  c #8BBA00",
"u  c #8ABB00",
"i  c #8BBB03",
"p  c #8CB800",
"a  c #8CB900",
"s  c #8CBA00",
"d  c #8DBA00",
"f  c #8CBB00",
"g  c #8DBB00",
"h  c #8ABC00",
"j  c #8BBC00",
"k  c #8BBD00",
"l  c #8BBE00",
"z  c #8CBC00",
"x  c #8DBC00",
"c  c #8CBD00",
"v  c #8CBD01",
"b  c #8EBC00",
"n  c #8FBC00",
"m  c #8EBD00",
"M  c #8FBD00",
"N  c #8FBC01",
"B  c #8CBE00",
"V  c #8DBE00",
"C  c #8CBF00",
"Z  c #8DBF00",
"A  c #8FBE00",
"S  c #8FBF00",
"D  c #8EBF01",
"F  c #8CBD02",
"G  c #8DBE02",
"H  c #8EBF03",
"J  c #8DBD05",
"K  c #8EBF04",
"L  c #8DBD07",
"P  c #90BD00",
"I  c #90BE00",
"U  c #90BF00",
"Y  c #91BF00",
"T  c #92BF00",
"R  c #90BD02",
"E  c #91BE03",
"W  c #92BF02",
"Q  c #91BD04",
"!  c #92BF04",
"~  c #93BF06",
"^  c #8EC000",
"/  c #8EC100",
"(  c #8FC100",
")  c #8FC200",
"_  c #8FC002",
"`  c #8FC004",
"'  c #91C000",
"]  c #91C100",
"[  c #92C000",
"{  c #92C100",
"}  c #93C100",
"|  c #93C001",
" . c #90C200",
".. c #90C300",
"X. c #91C300",
"o. c #90C201",
"O. c #92C200",
"+. c #93C200",
"@. c #93C300",
"#. c #90C103",
"$. c #93C003",
"%. c #91C302",
"&. c #94C200",
"*. c #94C300",
"=. c #95C300",
"-. c #94C301",
";. c #95C301",
":. c #94C102",
">. c #95C203",
",. c #91C400",
"<. c #92C400",
"1. c #92C500",
"2. c #92C401",
"3. c #93C501",
"4. c #93C600",
"5. c #93C700",
"6. c #93C502",
"7. c #92C403",
"8. c #94C400",
"9. c #95C400",
"0. c #95C500",
"q. c #95C501",
"w. c #96C400",
"e. c #97C500",
"r. c #96C401",
"t. c #94C700",
"y. c #97C600",
"u. c #95C402",
"i. c #96C402",
"p. c #97C502",
"a. c #96C503",
"s. c #97C503",
"d. c #94C602",
"f. c #94C603",
"g. c #95C703",
"h. c #96C602",
"j. c #97C703",
"k. c #90C105",
"l. c #93C005",
"z. c #91C204",
"x. c #92C305",
"c. c #91C206",
"v. c #91C207",
"b. c #92C307",
"n. c #94C104",
"m. c #95C205",
"M. c #96C304",
"N. c #96C306",
"B. c #93C504",
"V. c #93C406",
"C. c #97C405",
"Z. c #95C704",
"A. c #94C605",
"S. c #97C604",
"D. c #94C507",
"F. c #95C706",
"G. c #98C700",
"H. c #98C601",
"J. c #99C702",
"K. c #98C603",
"L. c #98C604",
"P. c #99C704",
"I. c #98C705",
"U. c #99C705",
"Y. c #98C506",
"T. c #99C607",
"R. c #95C800",
"E. c #95C801",
"W. c #96C900",
"Q. c #96CA00",
"!. c #97CA00",
"~. c #97CB00",
"^. c #97CA01",
"/. c #96C902",
"(. c #97CA03",
"). c #96C804",
"_. c #96C805",
"`. c #97C905",
"'. c #97C906",
"]. c #96C807",
"[. c #98C800",
"{. c #99C800",
"}. c #9AC901",
"|. c #98CB00",
" X c #9BCA02",
".X c #9CCB01",
"XX c #9CCB03",
"oX c #99CC01",
"OX c #99CC03",
"+X c #9BCE03",
"@X c #98C804",
"#X c #99C905",
"$X c #9BC904",
"%X c #9AC805",
"&X c #98CB04",
"*X c #99C806",
"=X c #9AC806",
"-X c #9BC906",
";X c #9BC907",
":X c #98CA06",
">X c #98CA07",
",X c #99CB07",
"<X c #9BCB07",
"1X c #9CCA07",
"2X c #99CC05",
"3X c #9ACD06",
"4X c #9DCC04",
"5X c #9CCC06",
"6X c #92C308",
"7X c #91C10B",
"8X c #92C20A",
"9X c #93C408",
"0X c #93C409",
"qX c #97C409",
"wX c #95C608",
"eX c #96C709",
"rX c #95C60A",
"tX c #98C508",
"yX c #9AC708",
"uX c #97C908",
"iX c #97C80A",
"pX c #97C80C",
"aX c #9BC809",
"sX c #99CB08",
"dX c #98CA09",
"fX c #9BCA08",
"gX c #99CB0A",
"hX c #9CCA08",
"jX c #9DCB09",
"kX c #9CC90A",
"lX c #9ACC08",
"zX c #9ACC09",
"xX c #9BCD09",
"cX c #9BCD0A",
"vX c #9DCC0A",
"bX c #9FCD0B",
"nX c #9CCE0A",
"mX c #9CCE0B",
"MX c #9DCF0B",
"NX c #9ECE0A",
"BX c #98C90D",
"VX c #99CA0C",
"CX c #9CC90C",
"ZX c #9DCA0D",
"AX c #9FCC0D",
"SX c #9DCF0C",
"DX c #9DD007",
"FX c #9ED00C",
"GX c #9FD10E",
"HX c #9DCE10",
"JX c #A1D10D",
"KX c #A0D20F",
/* pixels */
"C ) 1.1.X.X.1.E.1.d.E.E.:X:XE.E.A.A.1.1.X.X.X.X.X.X.X.X.1.d.`.`.zX`.1.1.d.d.1.) 1.1.d.`.`.`.d.d.X.1.A.`.`.d.X.) X.X.X.X.X.X.1.1.",
") 1.E.E.1.X.X.1.1.1.d.E.E.E.E.d.d.d.1.X.X.X.X.X.X.X.X.X.X.1.d.A.1.) C C X.X.X.C 1.1.d.d.d.d.d.d.`.`.:X:X:X:X:X:X) ) X.X.X.X.1.1.",
"X.d.`.`.d.X.) ) X.X.1.1.d.1.1.1.1.1.X.X.X.X.X.X.1.1.X.X.X.X.1.1.d.1.X.X.1.1.1.X.X.X.1.1.d.1.1.1.dX:X`.`.`.dXzXSX) ) ) X.X.X.X.X.",
"X.1.`.:X`.d.X.) X.X.X.X.X.X.X.X.X.X.X.X.X.X.1.1.d.1.1.X.X.X.X.X.:X`.`.`.d.d.1.X.) X.X.1.1.1.1.X.1.1.1.d.A.`.:XdX) ) ) ) X.X.X.X.",
"X.X.B.`.uX`.A.1.X.) ) ) ) ) ) ) X.X.X.X.X.1.1.d.d.1.1.X.) ) ) X.X.1.d.d.1.1.X.X.) ) X.X.1.1.X.X.C ) X.d.A.A.1.1.) ) ) X.X.X.X.X.",
"x.X.X.1.wX`.wXB.X.X.) ) C C C ) X.X.X.X.1.d.A.`.1.1.X.X.) ) ) X.C X.d.`.`.d.`.`.) X.X.1.1.1.1.X.C ) 1.`.`.A.1.X.X.X.X.X.X.1.1.1.",
"wXx.` ) x.A.9Xx.x.X.` C C C C ) X.X.X.1.d.`.:XdX1.X.X.) ) ) X.X.) 1.`.:X`.d.d.d.X.X.X.1.1.1.1.1.) X.X.1.1.1.X.X.X.1.1.1.1.1.d.d.",
"BX9XC C ` x.x.x.x.x.` C C C C ) X.X.1.1.A.`.dXzXX.X.) ) ) ) X.X.X.d.`.d.) e 5 5 X.X.1.1.d.1.1.1.X.) ) C C C ) ) 1.1.1.1.d.d.A.A.",
"wX9Xx.` x.x.x.x.x.x.x.x.x.` C C ) X.1.A.`.`.A.A.A.X.C j j j e e % e ) d.`.`.d.1.C d.bXbXd.) ) X.X.C e % % % 5 e C X.1.A.d.d.`.`.",
"` C e e e e e e e C C x.9XA.wXwX) X.1.d.A.d.d.1.1.X.C C C C j e 1.1.1.1.d.:XzXzX1.`.:XzX:X`.d.1.X.) j e e e j j ) X.1.d.1.1.d.A.",
"x.X.) C j e e e e C ) 1.A.`.uXdXX.X.X.1.1.1.X.X.X.X.) X.X.X.) C d.d.`.`.:X:X:X:XX.) ) X.d.d.1.) X.X.) ) ) ) ) ) ) 1.d.d.1.X.1.1.",
"A.`.`.d.X.X.X.X.1.1.B.d.A.d.B.1.X.X.X.X.X.X.) ) X.) X.1.A.A.1.) j X.`.zXzX`.X.j C C C C ) X.X.1.X.X.1.d.A.d.1.1.1.d.`.A.1.X.X.1.",
") 1.d.1.X.X.1.d.`.`.`.d.d.1.X.X.X.X.X.) ) ) ) ) X.X.X.d.`.`.A.1.j ) d.:X:X1.C e ) 1.d.1.X.X.`.zXX.1.d.`.`.`.A.d.d.`.`.`.d.1.1.1.",
"C X.d.d.1.X.1.`.1.1.d.d.d.d.1.1.X.X.) ) ) X.X.X.1.X.X.1.`.`.`.d.d.1.X.X.) X.X.1.C 1.`.d.X.) d.bXX.X.1.A.`.A.d.1.1.A.`.`.1.X.X.1.",
"X.E.3X3XE.1.E.:XX.1.1.1.d.d.d.1.X.) ) ) ) X.1.d.d.1.X.X.d.`.`.A.`.1.X.C C ) 1.d.) 1.d.d.1.1.d.`.X.X.X.1.1.1.1.X.) X.d.1.X.) X.X.",
"X.E.:X:Xd.) X.d.d.1.d.1.d.1.X.X.X.) ) ) X.1.d.`.A.1.X.X.1.A.`.`.C ) ) X.X.) C C :X`.`.:XzXbX:X`.X.X.X.) X.) X.X.C ) X.X.X.C U ) ",
";.;.:XbX:XX.d.JX:XX.C C K.:XhXU.`.`.`.d.d.1.X.X.X.1.d.d.1.X.X.X.) j e j C C X.`.JXbX`.d.`.`.d.1.C g g e , , , , , , % , g U X.X.",
"X.X.;.U.K.U ;.:XU.X.C U ;.U.U.U.:X`.:X`.`.d.d.1.) X.1.1.X.) ) X.X.e 5 e j j ) A.SXdXd.d.d.d.1.X.g g , , , , , , g g g U X.M.;.;.",
";.X.U ;.;.U U X.;.;.X.X.;.d.:XdX:X:X:X:X:X:X`.`.X.1.1.X.) C ) X.B.C 5 5 5 5 C B.:X`.1.1.1.1.1.X.~ ~ C C g U U M.M.;.;.M.U.:XU.d.",
"U.;.U U ;.;.X.U U ;.X.X.X.;.:XbXd.d.`.`.`.`.`.d.d.d.d.1.) ) 1.A.uX) e e 5 5 j 1.1.1.X.X.X.X.1.X.M.~ U U U ~ M.yXhXU.A.A.:X:XhX:X",
"hXU.;.X.d.U.d.X.g g g g C U d.:XX.X.X.1.1.1.1.X.:X:X:X`.d.d.`.dXdXx.C j j e C 1.) X.X.X.X.X.1.1.U g , , , g U X.AXyX;.X.;.U.:X;X",
"hXhXU.;.d.hXhXd., , , , e C X.X.X.) X.X.X.) ) ) :XzXzX:X`.d.`.dXdXx.C C C j C X.C ) 1.1.1.1.1.d.M.~ g , X , g U yXM.U U U ;.K.U.",
"U.:XU.X.;.:XhXU.C e X , C ;.;.;.d.1.1.1.X.X.) ) d.`.:X:Xd.d.d.A.A.X.C ) ) j j ) C X.d.`.d.d.E.:XAXwXU , X , g C X.U U U ;.;.;.;.",
";.U.U.U U U.hXU.;.C e g ;.hXhXU.d.`.`.d.d.1.X.) X.1.`.`.1.X.X.X.1.C C X.) j e C C X.d.`.`.`.:XzXAXM.g X     X , g g C X.d.d.X.C ",
"U.d.X.C g g U U X.d.d.X.X.;XhXA.d.d.d.`.d.1.X.X.X.) ) X.1.d.1.X.X.x.B.B.1.X.) C C A.zX:X`.`.E.d.;.U g X X , , g ;.d.U.K.;.X.X.;.",
"d.;.X.C C U X.;.d.:X:X;.;.U.U.;.d.`.`.`.d.1.X.) 1.X.X.X.d.d.d.1.B.B.A.wXA.B.X.X.X.:XzX:Xd.`.E.d.M.M.;.;.;.;.;.;.K.U.;X:XK.d.d.K.",
";.;.X.U U X.;.U.:XhX:X;.;.U.U.;.d.d.d.d.d.1.X.X.d.1.1.1.d.`.d.d.A.wXwXwXA.A.B.1.1.:X:X1.X.1.1.X.C U ;.U.U.d.;.U d.U.:X:XK.d.d.K.",
";.X.X.X.X.;.U.;XU.U.U.;.;.;.;.;.X.X.X.X.1.1.1.1.d.1.1.1.d.`.d.1.A.A.A.A.A.A.B.B.X.d.1.) C X.1.) g U ;.M.d.;.U C X.;.;.d.;.;.d.d.",
";.X.X.;.;.d.U.:X:XU.d.;.X.U C C C j j C ) X.1.d.d.1.X.1.d.d.1.X.X.x.x.x.X.X.X.1.X.1.X.) X.d.d.1.d.U.U.:XU.U.d.;.U U X.;.d.d.;.X.",
";.;.;.;.;.d.d.U.bXU.d.;.U e , e e e j j ) X.1.d.d.1.1.1.d.d.1.X.) C C C ) ) X.X.1.d.d.1.d.dX3Xd.:XyXU.U.U.d.d.d.X.X.X.;.K.|.K.d.",
";.;.;.;.;.;.X.X.;X;.X.;.X.g g U C C C C ) X.1.d.`.d.1.d.d.d.1.X.) C C C C ) X.X.1.A.d.1.`.zXE.X.X.X.;.;.;.;.;.;.;.;.;.d.|.4XXX|.",
"U.d.d.;.;.X.U C ;.C U ;.d.X.;.dX1.X.X.) ) X.1.d.:X`.d.d.`.`.d.1.) ) C C C ) X.1.X.1.1.X.1.`.X.e g C X.d.K.d.d.;.;.X.X.d.:X4XXX|.",
"U.d.;.X.X.) C j e j U ) C C X.1.d.A.`.d.X.) ) X.) X.1.1.X.X.X.1.) ) 1.d.A.1.) C ) d.:X`.) C X.`.bXdX:X`.dXdXA.1.X.) X.1.:X`.d.X.",
"1.X.X.X.) ) C C C ) X.X.) ) 1.d.1.A.A.d.X.) X.X.) X.X.) C j C C C 1.`.:Xd.X.X.X.) 1.`.d.) C ) 1.1.X.X.1.`.A.X.) 1.X.X.1.A.`.1.X.",
") X.X.X.X.X.X.X.X.X.1.1.X.X.1.1.1.d.A.A.X.) X.1.) X.X.) j 5 5 e C d.zXzXd.X.1.`.X.X.1.1.X.X.) ) ) ) X.1.`.`.d.1.d.1.1.1.d.d.X.) ",
") X.1.1.1.1.A.`.1.d.d.1.X.X.X.X.1.d.A.A.X.X.X.1.X.1.1.) j e e j X.`.zXzX`.d.d.`.d.1.X.1.d.d.X.C j j j C X.1.A.`.A.d.1.1.1.X.X.) ",
") 1.A.A.d.A.:XzX`.`.A.A.A.d.1.1.1.1.d.1.X.X.X.1.1.1.d.1.X.X.X.1.`.d.d.`.:XzX`.1.`.d.1.d.:X:Xd.) 5 % O O % e X.A.`.A.A.1.X.X.) X.",
"X.d.`.`.d.d.`.zXzXdX`.`.:X:X`.d.X.1.d.1.X.X.1.1.1.d.`.`.A.d.`.:X:X1.) 1.:XzXd.) `.d.d.:XzXzXd.X.j e 5 % % e X.`.A.A.A.1.X.) X.1.",
"X.A.:X`.1.X.1.`.`.A.1.d.`.`.A.1.X.1.d.1.X.X.1.d.1.d.`.`.d.d.`.:Xd.1.X.X.d.`.1.) d.d.`.:XzX:Xd.X.) X.X.) C ) 1.`.d.A.A.1.) ) X.d.",
"X.A.:XA.) C X.d.1.) C ) X.1.X.C X.1.d.1.X.X.1.d.1.d.A.A.1.1.1.A.X.X.1.1.X.X.X.X.1.d.:X:X:Xd.1.X.j ) 1.1.X.) ) X.1.d.A.1.) ) 1.A.",
"1.X.) X.d.d.X.C ) X.X.X.X.X.) ) 1.1.A.`.`.`.d.1.:X`.1.) j e e j e 5 5 5 j ) d.`.X.) ) ) ) X.1.d.1.1.A.d.d.d.1.1.1.1.X.X.X.1.d.`.",
"`.d.X.X.1.1.1.1.) ) X.X.X.X.) ) X.1.1.1.1.1.X.X.`.d.X.C j e e j e e j j ) X.d.`.d.1.X.X.) X.1.1.X.1.1.A.A.d.d.d.A.d.1.1.1.1.d.A.",
"`.A.1.) C ) 1.`.) X.X.1.1.X.X.X.d.d.1.X.X.X.X.X.1.X.) C C j j j C C ) X.1.d.`.`.`.`.1.X.X.X.1.1.X.X.1.d.d.d.d.d.d.1.X.) ) X.1.1.",
"1.d.d.X.C j ) d.X.1.1.d.d.d.1.1.dX`.A.1.X.X.1.1.X.) ) ) X.X.) ) X.X.1.d.`.`.`.`.`.d.1.X.X.X.1.1.1.1.1.d.1.1.1.X.C C j j j C ) X.",
"X.d.`.A.X.C ) X.1.1.d.A.`.`.A.A.dX`.d.1.X.X.1.1.X.X.X.1.`.`.d.X.1.d.d.`.`.`.`.`.1.X.X.) X.1.d.d.d.d.d.d.1.X.) ) j j j j C ) 1.1.",
"d.`.:X`.d.X.X.) X.X.1.d.A.A.A.A.1.1.X.X.) ) ) ) 1.X.X.A.zXzX`.X.`.`.`.d.d.d.d.d.X.X.) ) X.1.d.`.d.d.d.1.1.X.) C ) ) ) ) X.1.`.:X",
"`.d.1.X.X.X.) C C ) ) X.1.1.1.1.) X.X.X.X.X.) ) X.X.X.`.zXzXA.) :X`.d.1.1.1.1.d.d.1.1.X.X.1.d.d.X.X.X.1.1.1.X.X.d.1.1.X.1.1.A.`.",
"`.X.j 5 e j j e e j C ) ) ) ) ) X.X.1.d.A.d.1.X.X.) X.A.zXzXd.C :X`.1.X.X.X.1.d.:X`.d.1.1.1.d.d.C C ) X.1.d.d.d.`.A.1.X.X.X.X.1.",
"C ) ) C e 5 e e j j C ) X.d.`.:X`.d.1.`.zXbX`.X.X.X.X.X.X.X.X.X.X.X.) C ) X.d.`.:X:X`.d.d.d.`.`.zX1.X.`.`.1.1.`.`.`.`.A.d.1.X.X.",
"C ) X.) j j j C C C C X.1.`.:XdX`.A.1.`.zXzX`.X.X.X.X.X.X.X.X.X.d.1.X.) ) X.1.d.zX:X`.`.d.`.`.`.:XX.) 1.A.X.X.d.1.1.1.1.1.X.) ) ",
") X.X.X.) C ) X.j j C ) X.1.A.`.`.d.1.`.zXzX`.X.1.1.1.1.1.1.1.1.d.1.X.C C C ) X.`.`.d.d.1.1.d.d.d.) C X.1.X.X.1.) X.X.X.X.X.) ) ",
") X.1.1.1.X.1.A.) ) ) ) X.B.wXuXd.1.1.d.`.`.1.X.A.A.A.A.A.A.A.A.d.1.) j e e j j X.X.X.X.) ) ) ) X.) C ) X.1.1.1.) ) X.X.X.X.X.X.",
"1.1.E.E.d.d.`.:XB.1.X.x.x.wXpXBXX.X.X.X.1.1.X.) `.`.`.`.`.`.`.`.`.d.X.C j j C C X.X.X.X.) ) ) ) X.X.) ) 1.A.`.d.X.X.1.1.1.1.1.1.",
"1.E.E.E.E.E.`.dX) ) C j j K x.9XX.X.X.X.X.X.X.X.`.`.`.`.`.`.`.`.zX`.d.1.X.X.1.d.1.d.d.d.d.1.1.X.X.X.X.) 1.:XdXA.1.d.d.A.A.d.1.1.",
"E.E.|.|.E.E.`.dXC j 5 % % e e K 1.1.1.X.X.X.1.1.d.d.d.d.d.d.d.d.`.d.1.X.X.1.`.`.d.d.`.`.`.d.1.1.) X.X.) 1.zXzX`.A.A.`.A.A.1.1.X.",
"E.E.oX|.E.E.`.:X1.X.C j e K 8X9XA.d.d.1.1.1.d.A.X.X.X.X.X.X.X.X.X.X.) ) ) X.d.`.1.d.d.`.d.d.1.X.C X.X.C X.zXzXA.`.`.`.A.d.1.X.X.",
"E.1.d.|.oX1.) C A.) C 9X8XK K 8XX.1.d.d.1.1.A.`.1.1.X.X.) ) ) C :X`.`.`.`.d.d.d.`.d.d.`.:X:X1.) ) ) X.X.X.X.C j e j C C C C ) X.",
"oXE.1.d.d.) C C ) j e C K e e C 1.1.A.d.1.1.1.A.X.X.X.X.X.) ) ) d.d.d.d.`.`.`.`.`.d.1.d.`.`.1.) X.X.X.X.X.) ) C C C C ) ) X.X.X.",
"DXE.) ) ) j j C e 5 e C j 5 % 5 ) X.X.X.) C ) X.) ) X.X.X.X.X.X.d.d.d.d.d.d.d.d.d.1.X.X.1.1.X.) X.X.) ) C ) ) ) ) j e C X.1.X.C ",
"3X1.) ) ) j j C e e j C C e 5 5 5 e j j e e e j ) ) ) X.X.1.1.1.:X:X`.d.1.X.) ) 1.X.X.X.X.X.X.X.) ) ) C j j ) X.) j 5 e X.1.) j ",
"1.C j X.X.) C ) j C ) C C C e e % 5 e j e e j C ) ) ) X.X.1.d.A.:X:X`.d.1.X.) ) X.X.1.1.X.X.X.1.C ) ) C j j ) X.1.) j C 1.A.1.C ",
"X.C C X.d.X.X.X.C X.X.C C ) ) j j C ) X.) ) X.1.) ) X.X.1.1.d.A.1.1.1.1.1.1.1.1.) 1.d.`.d.1.1.1.C ) X.) C C ) 1.:XA.1.d.:XdX`.d.",
"wXX.C X.B.1.1.A.A.:Xd.) ) d.`.1.d.A.`.A.1.X.1.1.X.X.X.X.1.1.d.d.X.X.X.X.1.1.1.1.) 1.:XzX:X`.d.d.C X.A.A.1.X.1.`.:X`.`.`.:X:X`.`.",
"HXwX) ) X.X.B.dXbXGXbX1.1.zXbXzX:XdX:X`.1.) ) X.X.X.1.1.1.1.1.1.1.1.1.X.X.X.X.) C d.zXGXbX:X`.d.) A.dXdX`.1.`.dXd.A.`.`.d.1.d.A."
};
